ISO-10303-21;
HEADER;
/* Generated by software containing ST-Developer
 * from STEP Tools, Inc. (www.steptools.com) 
 */

FILE_DESCRIPTION(
/* description */ (''),
/* implementation_level */ '2;1');

FILE_NAME(
/* name */ 'base_macropad.step',
/* time_stamp */ '2026-08-22T00:35:05+06:00',
/* author */ (''),
/* organization */ (''),
/* preprocessor_version */ 'ST-DEVELOPER v20.1',
/* originating_system */ 'Autodesk Translation Framework v15.8.0.0',
/* authorisation */ '');

FILE_SCHEMA (('AUTOMOTIVE_DESIGN { 1 0 10303 214 3 1 1 }'));
ENDSEC;

DATA;
#10=MECHANICAL_DESIGN_GEOMETRIC_PRESENTATION_REPRESENTATION('',(#13),#1173);
#11=SHAPE_REPRESENTATION_RELATIONSHIP('SRR','None',#1180,#12);
#12=ADVANCED_BREP_SHAPE_REPRESENTATION('',(#14),#1172);
#13=STYLED_ITEM('',(#1189),#14);
#14=MANIFOLD_SOLID_BREP('Body2',#662);
#15=FACE_BOUND('',#121,.T.);
#16=FACE_BOUND('',#126,.T.);
#17=FACE_BOUND('',#131,.T.);
#18=FACE_BOUND('',#132,.T.);
#19=FACE_BOUND('',#137,.T.);
#20=FACE_BOUND('',#141,.T.);
#21=FACE_BOUND('',#144,.T.);
#22=FACE_BOUND('',#148,.T.);
#23=FACE_BOUND('',#151,.T.);
#24=FACE_BOUND('',#153,.T.);
#25=FACE_BOUND('',#156,.T.);
#26=FACE_BOUND('',#158,.T.);
#27=FACE_BOUND('',#161,.T.);
#28=FACE_BOUND('',#171,.T.);
#29=FACE_BOUND('',#172,.T.);
#30=FACE_BOUND('',#173,.T.);
#31=FACE_BOUND('',#174,.T.);
#32=FACE_BOUND('',#175,.T.);
#33=FACE_BOUND('',#176,.T.);
#34=FACE_BOUND('',#177,.T.);
#35=FACE_BOUND('',#178,.T.);
#36=CONICAL_SURFACE('',#692,0.0475,1.02974425867665);
#37=CONICAL_SURFACE('',#700,0.0475,1.02974425867665);
#38=CONICAL_SURFACE('',#708,0.0475,1.02974425867665);
#39=CONICAL_SURFACE('',#717,0.0475,1.02974425867665);
#40=CONICAL_SURFACE('',#731,0.0475,1.02974425867665);
#41=PLANE('',#679);
#42=PLANE('',#683);
#43=PLANE('',#687);
#44=PLANE('',#691);
#45=PLANE('',#694);
#46=PLANE('',#702);
#47=PLANE('',#710);
#48=PLANE('',#719);
#49=PLANE('',#725);
#50=PLANE('',#730);
#51=PLANE('',#734);
#52=PLANE('',#739);
#53=PLANE('',#740);
#54=PLANE('',#745);
#55=PLANE('',#746);
#56=PLANE('',#751);
#57=PLANE('',#760);
#58=PLANE('',#761);
#59=PLANE('',#762);
#60=PLANE('',#763);
#61=PLANE('',#764);
#62=PLANE('',#765);
#63=FACE_OUTER_BOUND('',#111,.T.);
#64=FACE_OUTER_BOUND('',#112,.T.);
#65=FACE_OUTER_BOUND('',#113,.T.);
#66=FACE_OUTER_BOUND('',#114,.T.);
#67=FACE_OUTER_BOUND('',#115,.T.);
#68=FACE_OUTER_BOUND('',#116,.T.);
#69=FACE_OUTER_BOUND('',#117,.T.);
#70=FACE_OUTER_BOUND('',#118,.T.);
#71=FACE_OUTER_BOUND('',#119,.T.);
#72=FACE_OUTER_BOUND('',#120,.T.);
#73=FACE_OUTER_BOUND('',#122,.T.);
#74=FACE_OUTER_BOUND('',#123,.T.);
#75=FACE_OUTER_BOUND('',#124,.T.);
#76=FACE_OUTER_BOUND('',#125,.T.);
#77=FACE_OUTER_BOUND('',#127,.T.);
#78=FACE_OUTER_BOUND('',#128,.T.);
#79=FACE_OUTER_BOUND('',#129,.T.);
#80=FACE_OUTER_BOUND('',#130,.T.);
#81=FACE_OUTER_BOUND('',#133,.T.);
#82=FACE_OUTER_BOUND('',#134,.T.);
#83=FACE_OUTER_BOUND('',#135,.T.);
#84=FACE_OUTER_BOUND('',#136,.T.);
#85=FACE_OUTER_BOUND('',#138,.T.);
#86=FACE_OUTER_BOUND('',#139,.T.);
#87=FACE_OUTER_BOUND('',#140,.T.);
#88=FACE_OUTER_BOUND('',#142,.T.);
#89=FACE_OUTER_BOUND('',#143,.T.);
#90=FACE_OUTER_BOUND('',#145,.T.);
#91=FACE_OUTER_BOUND('',#146,.T.);
#92=FACE_OUTER_BOUND('',#147,.T.);
#93=FACE_OUTER_BOUND('',#149,.T.);
#94=FACE_OUTER_BOUND('',#150,.T.);
#95=FACE_OUTER_BOUND('',#152,.T.);
#96=FACE_OUTER_BOUND('',#154,.T.);
#97=FACE_OUTER_BOUND('',#155,.T.);
#98=FACE_OUTER_BOUND('',#157,.T.);
#99=FACE_OUTER_BOUND('',#159,.T.);
#100=FACE_OUTER_BOUND('',#160,.T.);
#101=FACE_OUTER_BOUND('',#162,.T.);
#102=FACE_OUTER_BOUND('',#163,.T.);
#103=FACE_OUTER_BOUND('',#164,.T.);
#104=FACE_OUTER_BOUND('',#165,.T.);
#105=FACE_OUTER_BOUND('',#166,.T.);
#106=FACE_OUTER_BOUND('',#167,.T.);
#107=FACE_OUTER_BOUND('',#168,.T.);
#108=FACE_OUTER_BOUND('',#169,.T.);
#109=FACE_OUTER_BOUND('',#170,.T.);
#110=FACE_OUTER_BOUND('',#179,.T.);
#111=EDGE_LOOP('',(#433,#434,#435,#436));
#112=EDGE_LOOP('',(#437));
#113=EDGE_LOOP('',(#438,#439,#440,#441));
#114=EDGE_LOOP('',(#442));
#115=EDGE_LOOP('',(#443,#444,#445,#446));
#116=EDGE_LOOP('',(#447));
#117=EDGE_LOOP('',(#448,#449,#450,#451));
#118=EDGE_LOOP('',(#452));
#119=EDGE_LOOP('',(#453,#454,#455));
#120=EDGE_LOOP('',(#456));
#121=EDGE_LOOP('',(#457));
#122=EDGE_LOOP('',(#458,#459,#460,#461));
#123=EDGE_LOOP('',(#462,#463,#464,#465));
#124=EDGE_LOOP('',(#466,#467,#468));
#125=EDGE_LOOP('',(#469));
#126=EDGE_LOOP('',(#470));
#127=EDGE_LOOP('',(#471,#472,#473,#474));
#128=EDGE_LOOP('',(#475,#476,#477,#478));
#129=EDGE_LOOP('',(#479,#480,#481));
#130=EDGE_LOOP('',(#482));
#131=EDGE_LOOP('',(#483));
#132=EDGE_LOOP('',(#484));
#133=EDGE_LOOP('',(#485,#486,#487,#488));
#134=EDGE_LOOP('',(#489,#490,#491,#492));
#135=EDGE_LOOP('',(#493,#494,#495));
#136=EDGE_LOOP('',(#496));
#137=EDGE_LOOP('',(#497));
#138=EDGE_LOOP('',(#498,#499,#500,#501));
#139=EDGE_LOOP('',(#502,#503,#504,#505));
#140=EDGE_LOOP('',(#506));
#141=EDGE_LOOP('',(#507));
#142=EDGE_LOOP('',(#508,#509,#510,#511));
#143=EDGE_LOOP('',(#512));
#144=EDGE_LOOP('',(#513));
#145=EDGE_LOOP('',(#514,#515,#516));
#146=EDGE_LOOP('',(#517,#518,#519,#520));
#147=EDGE_LOOP('',(#521));
#148=EDGE_LOOP('',(#522));
#149=EDGE_LOOP('',(#523,#524,#525,#526));
#150=EDGE_LOOP('',(#527));
#151=EDGE_LOOP('',(#528));
#152=EDGE_LOOP('',(#529));
#153=EDGE_LOOP('',(#530));
#154=EDGE_LOOP('',(#531,#532,#533,#534));
#155=EDGE_LOOP('',(#535));
#156=EDGE_LOOP('',(#536));
#157=EDGE_LOOP('',(#537));
#158=EDGE_LOOP('',(#538));
#159=EDGE_LOOP('',(#539,#540,#541,#542));
#160=EDGE_LOOP('',(#543));
#161=EDGE_LOOP('',(#544));
#162=EDGE_LOOP('',(#545,#546,#547,#548));
#163=EDGE_LOOP('',(#549,#550,#551,#552));
#164=EDGE_LOOP('',(#553,#554,#555,#556));
#165=EDGE_LOOP('',(#557,#558,#559,#560));
#166=EDGE_LOOP('',(#561,#562,#563,#564));
#167=EDGE_LOOP('',(#565,#566,#567,#568));
#168=EDGE_LOOP('',(#569,#570,#571,#572));
#169=EDGE_LOOP('',(#573,#574,#575,#576));
#170=EDGE_LOOP('',(#577,#578,#579,#580));
#171=EDGE_LOOP('',(#581));
#172=EDGE_LOOP('',(#582));
#173=EDGE_LOOP('',(#583));
#174=EDGE_LOOP('',(#584));
#175=EDGE_LOOP('',(#585));
#176=EDGE_LOOP('',(#586));
#177=EDGE_LOOP('',(#587));
#178=EDGE_LOOP('',(#588));
#179=EDGE_LOOP('',(#589,#590,#591,#592));
#180=LINE('',#991,#218);
#181=LINE('',#998,#219);
#182=LINE('',#1005,#220);
#183=LINE('',#1012,#221);
#184=LINE('',#1019,#222);
#185=LINE('',#1028,#223);
#186=LINE('',#1030,#224);
#187=LINE('',#1035,#225);
#188=LINE('',#1044,#226);
#189=LINE('',#1046,#227);
#190=LINE('',#1051,#228);
#191=LINE('',#1062,#229);
#192=LINE('',#1064,#230);
#193=LINE('',#1069,#231);
#194=LINE('',#1078,#232);
#195=LINE('',#1080,#233);
#196=LINE('',#1089,#234);
#197=LINE('',#1095,#235);
#198=LINE('',#1097,#236);
#199=LINE('',#1106,#237);
#200=LINE('',#1116,#238);
#201=LINE('',#1126,#239);
#202=LINE('',#1130,#240);
#203=LINE('',#1134,#241);
#204=LINE('',#1138,#242);
#205=LINE('',#1142,#243);
#206=LINE('',#1147,#244);
#207=LINE('',#1149,#245);
#208=LINE('',#1151,#246);
#209=LINE('',#1152,#247);
#210=LINE('',#1155,#248);
#211=LINE('',#1157,#249);
#212=LINE('',#1158,#250);
#213=LINE('',#1161,#251);
#214=LINE('',#1163,#252);
#215=LINE('',#1164,#253);
#216=LINE('',#1166,#254);
#217=LINE('',#1167,#255);
#218=VECTOR('',#772,1.2);
#219=VECTOR('',#781,1.5);
#220=VECTOR('',#790,1.5);
#221=VECTOR('',#799,1.5);
#222=VECTOR('',#808,0.0475);
#223=VECTOR('',#819,1.2);
#224=VECTOR('',#822,0.095);
#225=VECTOR('',#827,0.0475);
#226=VECTOR('',#838,1.2);
#227=VECTOR('',#841,0.095);
#228=VECTOR('',#846,0.0475);
#229=VECTOR('',#859,1.2);
#230=VECTOR('',#862,0.095);
#231=VECTOR('',#867,0.0475);
#232=VECTOR('',#878,1.2);
#233=VECTOR('',#881,0.095);
#234=VECTOR('',#892,4.);
#235=VECTOR('',#899,0.0475);
#236=VECTOR('',#902,0.095);
#237=VECTOR('',#913,4.);
#238=VECTOR('',#926,4.);
#239=VECTOR('',#939,4.);
#240=VECTOR('',#944,2.5);
#241=VECTOR('',#949,2.5);
#242=VECTOR('',#954,2.5);
#243=VECTOR('',#959,2.5);
#244=VECTOR('',#964,10.);
#245=VECTOR('',#965,10.);
#246=VECTOR('',#966,10.);
#247=VECTOR('',#967,10.);
#248=VECTOR('',#970,10.);
#249=VECTOR('',#971,10.);
#250=VECTOR('',#972,10.);
#251=VECTOR('',#975,10.);
#252=VECTOR('',#976,10.);
#253=VECTOR('',#977,10.);
#254=VECTOR('',#980,10.);
#255=VECTOR('',#981,10.);
#256=CIRCLE('',#677,1.2);
#257=CIRCLE('',#678,1.2);
#258=CIRCLE('',#681,1.5);
#259=CIRCLE('',#682,1.5);
#260=CIRCLE('',#685,1.5);
#261=CIRCLE('',#686,1.5);
#262=CIRCLE('',#689,1.5);
#263=CIRCLE('',#690,1.5);
#264=CIRCLE('',#693,0.095);
#265=CIRCLE('',#695,1.2);
#266=CIRCLE('',#696,0.095);
#267=CIRCLE('',#698,1.2);
#268=CIRCLE('',#701,0.095);
#269=CIRCLE('',#703,1.2);
#270=CIRCLE('',#704,0.095);
#271=CIRCLE('',#706,1.2);
#272=CIRCLE('',#709,0.095);
#273=CIRCLE('',#711,1.2);
#274=CIRCLE('',#712,0.095);
#275=CIRCLE('',#713,0.095);
#276=CIRCLE('',#715,1.2);
#277=CIRCLE('',#718,0.095);
#278=CIRCLE('',#720,1.2);
#279=CIRCLE('',#721,0.095);
#280=CIRCLE('',#723,1.2);
#281=CIRCLE('',#726,4.);
#282=CIRCLE('',#727,2.4505);
#283=CIRCLE('',#729,4.);
#284=CIRCLE('',#732,0.095);
#285=CIRCLE('',#735,4.);
#286=CIRCLE('',#736,2.204);
#287=CIRCLE('',#738,4.);
#288=CIRCLE('',#741,4.);
#289=CIRCLE('',#742,2.204);
#290=CIRCLE('',#744,4.);
#291=CIRCLE('',#747,4.);
#292=CIRCLE('',#748,2.204);
#293=CIRCLE('',#750,4.);
#294=CIRCLE('',#753,2.204);
#295=CIRCLE('',#755,2.4505);
#296=CIRCLE('',#757,2.204);
#297=CIRCLE('',#759,2.204);
#298=VERTEX_POINT('',#988);
#299=VERTEX_POINT('',#990);
#300=VERTEX_POINT('',#995);
#301=VERTEX_POINT('',#997);
#302=VERTEX_POINT('',#1002);
#303=VERTEX_POINT('',#1004);
#304=VERTEX_POINT('',#1009);
#305=VERTEX_POINT('',#1011);
#306=VERTEX_POINT('',#1016);
#307=VERTEX_POINT('',#1018);
#308=VERTEX_POINT('',#1021);
#309=VERTEX_POINT('',#1023);
#310=VERTEX_POINT('',#1026);
#311=VERTEX_POINT('',#1032);
#312=VERTEX_POINT('',#1034);
#313=VERTEX_POINT('',#1037);
#314=VERTEX_POINT('',#1039);
#315=VERTEX_POINT('',#1042);
#316=VERTEX_POINT('',#1048);
#317=VERTEX_POINT('',#1050);
#318=VERTEX_POINT('',#1053);
#319=VERTEX_POINT('',#1055);
#320=VERTEX_POINT('',#1057);
#321=VERTEX_POINT('',#1060);
#322=VERTEX_POINT('',#1066);
#323=VERTEX_POINT('',#1068);
#324=VERTEX_POINT('',#1071);
#325=VERTEX_POINT('',#1073);
#326=VERTEX_POINT('',#1076);
#327=VERTEX_POINT('',#1082);
#328=VERTEX_POINT('',#1084);
#329=VERTEX_POINT('',#1087);
#330=VERTEX_POINT('',#1092);
#331=VERTEX_POINT('',#1094);
#332=VERTEX_POINT('',#1099);
#333=VERTEX_POINT('',#1101);
#334=VERTEX_POINT('',#1104);
#335=VERTEX_POINT('',#1109);
#336=VERTEX_POINT('',#1111);
#337=VERTEX_POINT('',#1114);
#338=VERTEX_POINT('',#1119);
#339=VERTEX_POINT('',#1121);
#340=VERTEX_POINT('',#1124);
#341=VERTEX_POINT('',#1129);
#342=VERTEX_POINT('',#1133);
#343=VERTEX_POINT('',#1137);
#344=VERTEX_POINT('',#1141);
#345=VERTEX_POINT('',#1145);
#346=VERTEX_POINT('',#1146);
#347=VERTEX_POINT('',#1148);
#348=VERTEX_POINT('',#1150);
#349=VERTEX_POINT('',#1154);
#350=VERTEX_POINT('',#1156);
#351=VERTEX_POINT('',#1160);
#352=VERTEX_POINT('',#1162);
#353=EDGE_CURVE('',#298,#298,#256,.T.);
#354=EDGE_CURVE('',#298,#299,#180,.T.);
#355=EDGE_CURVE('',#299,#299,#257,.T.);
#356=EDGE_CURVE('',#300,#300,#258,.T.);
#357=EDGE_CURVE('',#300,#301,#181,.T.);
#358=EDGE_CURVE('',#301,#301,#259,.T.);
#359=EDGE_CURVE('',#302,#302,#260,.T.);
#360=EDGE_CURVE('',#302,#303,#182,.T.);
#361=EDGE_CURVE('',#303,#303,#261,.T.);
#362=EDGE_CURVE('',#304,#304,#262,.T.);
#363=EDGE_CURVE('',#304,#305,#183,.T.);
#364=EDGE_CURVE('',#305,#305,#263,.T.);
#365=EDGE_CURVE('',#306,#306,#264,.T.);
#366=EDGE_CURVE('',#306,#307,#184,.T.);
#367=EDGE_CURVE('',#308,#308,#265,.T.);
#368=EDGE_CURVE('',#309,#309,#266,.T.);
#369=EDGE_CURVE('',#310,#310,#267,.T.);
#370=EDGE_CURVE('',#310,#308,#185,.T.);
#371=EDGE_CURVE('',#309,#306,#186,.T.);
#372=EDGE_CURVE('',#311,#311,#268,.T.);
#373=EDGE_CURVE('',#311,#312,#187,.T.);
#374=EDGE_CURVE('',#313,#313,#269,.T.);
#375=EDGE_CURVE('',#314,#314,#270,.T.);
#376=EDGE_CURVE('',#315,#315,#271,.T.);
#377=EDGE_CURVE('',#315,#313,#188,.T.);
#378=EDGE_CURVE('',#314,#311,#189,.T.);
#379=EDGE_CURVE('',#316,#316,#272,.T.);
#380=EDGE_CURVE('',#316,#317,#190,.T.);
#381=EDGE_CURVE('',#318,#318,#273,.T.);
#382=EDGE_CURVE('',#319,#319,#274,.T.);
#383=EDGE_CURVE('',#320,#320,#275,.T.);
#384=EDGE_CURVE('',#321,#321,#276,.T.);
#385=EDGE_CURVE('',#321,#318,#191,.T.);
#386=EDGE_CURVE('',#320,#316,#192,.T.);
#387=EDGE_CURVE('',#322,#322,#277,.T.);
#388=EDGE_CURVE('',#322,#323,#193,.T.);
#389=EDGE_CURVE('',#324,#324,#278,.T.);
#390=EDGE_CURVE('',#325,#325,#279,.T.);
#391=EDGE_CURVE('',#326,#326,#280,.T.);
#392=EDGE_CURVE('',#326,#324,#194,.T.);
#393=EDGE_CURVE('',#325,#322,#195,.T.);
#394=EDGE_CURVE('',#327,#327,#281,.T.);
#395=EDGE_CURVE('',#328,#328,#282,.F.);
#396=EDGE_CURVE('',#329,#329,#283,.T.);
#397=EDGE_CURVE('',#329,#327,#196,.T.);
#398=EDGE_CURVE('',#330,#330,#284,.T.);
#399=EDGE_CURVE('',#330,#331,#197,.T.);
#400=EDGE_CURVE('',#319,#330,#198,.T.);
#401=EDGE_CURVE('',#332,#332,#285,.T.);
#402=EDGE_CURVE('',#333,#333,#286,.T.);
#403=EDGE_CURVE('',#334,#334,#287,.T.);
#404=EDGE_CURVE('',#334,#332,#199,.T.);
#405=EDGE_CURVE('',#335,#335,#288,.T.);
#406=EDGE_CURVE('',#336,#336,#289,.F.);
#407=EDGE_CURVE('',#337,#337,#290,.T.);
#408=EDGE_CURVE('',#337,#335,#200,.T.);
#409=EDGE_CURVE('',#338,#338,#291,.T.);
#410=EDGE_CURVE('',#339,#339,#292,.F.);
#411=EDGE_CURVE('',#340,#340,#293,.T.);
#412=EDGE_CURVE('',#340,#338,#201,.T.);
#413=EDGE_CURVE('',#333,#341,#202,.T.);
#414=EDGE_CURVE('',#341,#341,#294,.T.);
#415=EDGE_CURVE('',#328,#342,#203,.T.);
#416=EDGE_CURVE('',#342,#342,#295,.T.);
#417=EDGE_CURVE('',#336,#343,#204,.T.);
#418=EDGE_CURVE('',#343,#343,#296,.T.);
#419=EDGE_CURVE('',#339,#344,#205,.T.);
#420=EDGE_CURVE('',#344,#344,#297,.T.);
#421=EDGE_CURVE('',#345,#346,#206,.T.);
#422=EDGE_CURVE('',#345,#347,#207,.T.);
#423=EDGE_CURVE('',#348,#347,#208,.T.);
#424=EDGE_CURVE('',#346,#348,#209,.T.);
#425=EDGE_CURVE('',#346,#349,#210,.T.);
#426=EDGE_CURVE('',#350,#348,#211,.T.);
#427=EDGE_CURVE('',#349,#350,#212,.T.);
#428=EDGE_CURVE('',#349,#351,#213,.T.);
#429=EDGE_CURVE('',#352,#350,#214,.T.);
#430=EDGE_CURVE('',#351,#352,#215,.T.);
#431=EDGE_CURVE('',#351,#345,#216,.T.);
#432=EDGE_CURVE('',#347,#352,#217,.T.);
#433=ORIENTED_EDGE('',*,*,#353,.F.);
#434=ORIENTED_EDGE('',*,*,#354,.T.);
#435=ORIENTED_EDGE('',*,*,#355,.T.);
#436=ORIENTED_EDGE('',*,*,#354,.F.);
#437=ORIENTED_EDGE('',*,*,#355,.F.);
#438=ORIENTED_EDGE('',*,*,#356,.F.);
#439=ORIENTED_EDGE('',*,*,#357,.T.);
#440=ORIENTED_EDGE('',*,*,#358,.T.);
#441=ORIENTED_EDGE('',*,*,#357,.F.);
#442=ORIENTED_EDGE('',*,*,#358,.F.);
#443=ORIENTED_EDGE('',*,*,#359,.F.);
#444=ORIENTED_EDGE('',*,*,#360,.T.);
#445=ORIENTED_EDGE('',*,*,#361,.T.);
#446=ORIENTED_EDGE('',*,*,#360,.F.);
#447=ORIENTED_EDGE('',*,*,#361,.F.);
#448=ORIENTED_EDGE('',*,*,#362,.F.);
#449=ORIENTED_EDGE('',*,*,#363,.T.);
#450=ORIENTED_EDGE('',*,*,#364,.T.);
#451=ORIENTED_EDGE('',*,*,#363,.F.);
#452=ORIENTED_EDGE('',*,*,#364,.F.);
#453=ORIENTED_EDGE('',*,*,#365,.F.);
#454=ORIENTED_EDGE('',*,*,#366,.T.);
#455=ORIENTED_EDGE('',*,*,#366,.F.);
#456=ORIENTED_EDGE('',*,*,#367,.F.);
#457=ORIENTED_EDGE('',*,*,#368,.T.);
#458=ORIENTED_EDGE('',*,*,#369,.F.);
#459=ORIENTED_EDGE('',*,*,#370,.T.);
#460=ORIENTED_EDGE('',*,*,#367,.T.);
#461=ORIENTED_EDGE('',*,*,#370,.F.);
#462=ORIENTED_EDGE('',*,*,#368,.F.);
#463=ORIENTED_EDGE('',*,*,#371,.T.);
#464=ORIENTED_EDGE('',*,*,#365,.T.);
#465=ORIENTED_EDGE('',*,*,#371,.F.);
#466=ORIENTED_EDGE('',*,*,#372,.F.);
#467=ORIENTED_EDGE('',*,*,#373,.T.);
#468=ORIENTED_EDGE('',*,*,#373,.F.);
#469=ORIENTED_EDGE('',*,*,#374,.F.);
#470=ORIENTED_EDGE('',*,*,#375,.T.);
#471=ORIENTED_EDGE('',*,*,#376,.F.);
#472=ORIENTED_EDGE('',*,*,#377,.T.);
#473=ORIENTED_EDGE('',*,*,#374,.T.);
#474=ORIENTED_EDGE('',*,*,#377,.F.);
#475=ORIENTED_EDGE('',*,*,#375,.F.);
#476=ORIENTED_EDGE('',*,*,#378,.T.);
#477=ORIENTED_EDGE('',*,*,#372,.T.);
#478=ORIENTED_EDGE('',*,*,#378,.F.);
#479=ORIENTED_EDGE('',*,*,#379,.F.);
#480=ORIENTED_EDGE('',*,*,#380,.T.);
#481=ORIENTED_EDGE('',*,*,#380,.F.);
#482=ORIENTED_EDGE('',*,*,#381,.F.);
#483=ORIENTED_EDGE('',*,*,#382,.F.);
#484=ORIENTED_EDGE('',*,*,#383,.T.);
#485=ORIENTED_EDGE('',*,*,#384,.F.);
#486=ORIENTED_EDGE('',*,*,#385,.T.);
#487=ORIENTED_EDGE('',*,*,#381,.T.);
#488=ORIENTED_EDGE('',*,*,#385,.F.);
#489=ORIENTED_EDGE('',*,*,#383,.F.);
#490=ORIENTED_EDGE('',*,*,#386,.T.);
#491=ORIENTED_EDGE('',*,*,#379,.T.);
#492=ORIENTED_EDGE('',*,*,#386,.F.);
#493=ORIENTED_EDGE('',*,*,#387,.F.);
#494=ORIENTED_EDGE('',*,*,#388,.T.);
#495=ORIENTED_EDGE('',*,*,#388,.F.);
#496=ORIENTED_EDGE('',*,*,#389,.F.);
#497=ORIENTED_EDGE('',*,*,#390,.T.);
#498=ORIENTED_EDGE('',*,*,#391,.F.);
#499=ORIENTED_EDGE('',*,*,#392,.T.);
#500=ORIENTED_EDGE('',*,*,#389,.T.);
#501=ORIENTED_EDGE('',*,*,#392,.F.);
#502=ORIENTED_EDGE('',*,*,#390,.F.);
#503=ORIENTED_EDGE('',*,*,#393,.T.);
#504=ORIENTED_EDGE('',*,*,#387,.T.);
#505=ORIENTED_EDGE('',*,*,#393,.F.);
#506=ORIENTED_EDGE('',*,*,#394,.T.);
#507=ORIENTED_EDGE('',*,*,#395,.T.);
#508=ORIENTED_EDGE('',*,*,#396,.F.);
#509=ORIENTED_EDGE('',*,*,#397,.T.);
#510=ORIENTED_EDGE('',*,*,#394,.F.);
#511=ORIENTED_EDGE('',*,*,#397,.F.);
#512=ORIENTED_EDGE('',*,*,#396,.T.);
#513=ORIENTED_EDGE('',*,*,#391,.T.);
#514=ORIENTED_EDGE('',*,*,#398,.F.);
#515=ORIENTED_EDGE('',*,*,#399,.T.);
#516=ORIENTED_EDGE('',*,*,#399,.F.);
#517=ORIENTED_EDGE('',*,*,#382,.T.);
#518=ORIENTED_EDGE('',*,*,#400,.T.);
#519=ORIENTED_EDGE('',*,*,#398,.T.);
#520=ORIENTED_EDGE('',*,*,#400,.F.);
#521=ORIENTED_EDGE('',*,*,#401,.T.);
#522=ORIENTED_EDGE('',*,*,#402,.T.);
#523=ORIENTED_EDGE('',*,*,#403,.F.);
#524=ORIENTED_EDGE('',*,*,#404,.T.);
#525=ORIENTED_EDGE('',*,*,#401,.F.);
#526=ORIENTED_EDGE('',*,*,#404,.F.);
#527=ORIENTED_EDGE('',*,*,#403,.T.);
#528=ORIENTED_EDGE('',*,*,#369,.T.);
#529=ORIENTED_EDGE('',*,*,#405,.T.);
#530=ORIENTED_EDGE('',*,*,#406,.T.);
#531=ORIENTED_EDGE('',*,*,#407,.F.);
#532=ORIENTED_EDGE('',*,*,#408,.T.);
#533=ORIENTED_EDGE('',*,*,#405,.F.);
#534=ORIENTED_EDGE('',*,*,#408,.F.);
#535=ORIENTED_EDGE('',*,*,#407,.T.);
#536=ORIENTED_EDGE('',*,*,#384,.T.);
#537=ORIENTED_EDGE('',*,*,#409,.T.);
#538=ORIENTED_EDGE('',*,*,#410,.T.);
#539=ORIENTED_EDGE('',*,*,#411,.F.);
#540=ORIENTED_EDGE('',*,*,#412,.T.);
#541=ORIENTED_EDGE('',*,*,#409,.F.);
#542=ORIENTED_EDGE('',*,*,#412,.F.);
#543=ORIENTED_EDGE('',*,*,#411,.T.);
#544=ORIENTED_EDGE('',*,*,#376,.T.);
#545=ORIENTED_EDGE('',*,*,#402,.F.);
#546=ORIENTED_EDGE('',*,*,#413,.T.);
#547=ORIENTED_EDGE('',*,*,#414,.F.);
#548=ORIENTED_EDGE('',*,*,#413,.F.);
#549=ORIENTED_EDGE('',*,*,#395,.F.);
#550=ORIENTED_EDGE('',*,*,#415,.T.);
#551=ORIENTED_EDGE('',*,*,#416,.F.);
#552=ORIENTED_EDGE('',*,*,#415,.F.);
#553=ORIENTED_EDGE('',*,*,#406,.F.);
#554=ORIENTED_EDGE('',*,*,#417,.T.);
#555=ORIENTED_EDGE('',*,*,#418,.F.);
#556=ORIENTED_EDGE('',*,*,#417,.F.);
#557=ORIENTED_EDGE('',*,*,#410,.F.);
#558=ORIENTED_EDGE('',*,*,#419,.T.);
#559=ORIENTED_EDGE('',*,*,#420,.F.);
#560=ORIENTED_EDGE('',*,*,#419,.F.);
#561=ORIENTED_EDGE('',*,*,#421,.F.);
#562=ORIENTED_EDGE('',*,*,#422,.T.);
#563=ORIENTED_EDGE('',*,*,#423,.F.);
#564=ORIENTED_EDGE('',*,*,#424,.F.);
#565=ORIENTED_EDGE('',*,*,#425,.F.);
#566=ORIENTED_EDGE('',*,*,#424,.T.);
#567=ORIENTED_EDGE('',*,*,#426,.F.);
#568=ORIENTED_EDGE('',*,*,#427,.F.);
#569=ORIENTED_EDGE('',*,*,#428,.F.);
#570=ORIENTED_EDGE('',*,*,#427,.T.);
#571=ORIENTED_EDGE('',*,*,#429,.F.);
#572=ORIENTED_EDGE('',*,*,#430,.F.);
#573=ORIENTED_EDGE('',*,*,#431,.F.);
#574=ORIENTED_EDGE('',*,*,#430,.T.);
#575=ORIENTED_EDGE('',*,*,#432,.F.);
#576=ORIENTED_EDGE('',*,*,#422,.F.);
#577=ORIENTED_EDGE('',*,*,#432,.T.);
#578=ORIENTED_EDGE('',*,*,#429,.T.);
#579=ORIENTED_EDGE('',*,*,#426,.T.);
#580=ORIENTED_EDGE('',*,*,#423,.T.);
#581=ORIENTED_EDGE('',*,*,#420,.T.);
#582=ORIENTED_EDGE('',*,*,#418,.T.);
#583=ORIENTED_EDGE('',*,*,#416,.T.);
#584=ORIENTED_EDGE('',*,*,#414,.T.);
#585=ORIENTED_EDGE('',*,*,#362,.T.);
#586=ORIENTED_EDGE('',*,*,#359,.T.);
#587=ORIENTED_EDGE('',*,*,#356,.T.);
#588=ORIENTED_EDGE('',*,*,#353,.T.);
#589=ORIENTED_EDGE('',*,*,#431,.T.);
#590=ORIENTED_EDGE('',*,*,#421,.T.);
#591=ORIENTED_EDGE('',*,*,#425,.T.);
#592=ORIENTED_EDGE('',*,*,#428,.T.);
#593=CYLINDRICAL_SURFACE('',#676,1.2);
#594=CYLINDRICAL_SURFACE('',#680,1.5);
#595=CYLINDRICAL_SURFACE('',#684,1.5);
#596=CYLINDRICAL_SURFACE('',#688,1.5);
#597=CYLINDRICAL_SURFACE('',#697,1.2);
#598=CYLINDRICAL_SURFACE('',#699,0.095);
#599=CYLINDRICAL_SURFACE('',#705,1.2);
#600=CYLINDRICAL_SURFACE('',#707,0.095);
#601=CYLINDRICAL_SURFACE('',#714,1.2);
#602=CYLINDRICAL_SURFACE('',#716,0.095);
#603=CYLINDRICAL_SURFACE('',#722,1.2);
#604=CYLINDRICAL_SURFACE('',#724,0.095);
#605=CYLINDRICAL_SURFACE('',#728,4.);
#606=CYLINDRICAL_SURFACE('',#733,0.095);
#607=CYLINDRICAL_SURFACE('',#737,4.);
#608=CYLINDRICAL_SURFACE('',#743,4.);
#609=CYLINDRICAL_SURFACE('',#749,4.);
#610=CYLINDRICAL_SURFACE('',#752,2.204);
#611=CYLINDRICAL_SURFACE('',#754,2.4505);
#612=CYLINDRICAL_SURFACE('',#756,2.204);
#613=CYLINDRICAL_SURFACE('',#758,2.204);
#614=ADVANCED_FACE('',(#63),#593,.F.);
#615=ADVANCED_FACE('',(#64),#41,.F.);
#616=ADVANCED_FACE('',(#65),#594,.F.);
#617=ADVANCED_FACE('',(#66),#42,.F.);
#618=ADVANCED_FACE('',(#67),#595,.F.);
#619=ADVANCED_FACE('',(#68),#43,.F.);
#620=ADVANCED_FACE('',(#69),#596,.F.);
#621=ADVANCED_FACE('',(#70),#44,.F.);
#622=ADVANCED_FACE('',(#71),#36,.F.);
#623=ADVANCED_FACE('',(#72,#15),#45,.F.);
#624=ADVANCED_FACE('',(#73),#597,.F.);
#625=ADVANCED_FACE('',(#74),#598,.F.);
#626=ADVANCED_FACE('',(#75),#37,.F.);
#627=ADVANCED_FACE('',(#76,#16),#46,.F.);
#628=ADVANCED_FACE('',(#77),#599,.F.);
#629=ADVANCED_FACE('',(#78),#600,.F.);
#630=ADVANCED_FACE('',(#79),#38,.F.);
#631=ADVANCED_FACE('',(#80,#17,#18),#47,.F.);
#632=ADVANCED_FACE('',(#81),#601,.F.);
#633=ADVANCED_FACE('',(#82),#602,.F.);
#634=ADVANCED_FACE('',(#83),#39,.F.);
#635=ADVANCED_FACE('',(#84,#19),#48,.F.);
#636=ADVANCED_FACE('',(#85),#603,.F.);
#637=ADVANCED_FACE('',(#86),#604,.F.);
#638=ADVANCED_FACE('',(#87,#20),#49,.T.);
#639=ADVANCED_FACE('',(#88),#605,.T.);
#640=ADVANCED_FACE('',(#89,#21),#50,.T.);
#641=ADVANCED_FACE('',(#90),#40,.F.);
#642=ADVANCED_FACE('',(#91),#606,.F.);
#643=ADVANCED_FACE('',(#92,#22),#51,.T.);
#644=ADVANCED_FACE('',(#93),#607,.T.);
#645=ADVANCED_FACE('',(#94,#23),#52,.T.);
#646=ADVANCED_FACE('',(#95,#24),#53,.T.);
#647=ADVANCED_FACE('',(#96),#608,.T.);
#648=ADVANCED_FACE('',(#97,#25),#54,.T.);
#649=ADVANCED_FACE('',(#98,#26),#55,.T.);
#650=ADVANCED_FACE('',(#99),#609,.T.);
#651=ADVANCED_FACE('',(#100,#27),#56,.T.);
#652=ADVANCED_FACE('',(#101),#610,.T.);
#653=ADVANCED_FACE('',(#102),#611,.T.);
#654=ADVANCED_FACE('',(#103),#612,.T.);
#655=ADVANCED_FACE('',(#104),#613,.T.);
#656=ADVANCED_FACE('',(#105),#57,.T.);
#657=ADVANCED_FACE('',(#106),#58,.T.);
#658=ADVANCED_FACE('',(#107),#59,.T.);
#659=ADVANCED_FACE('',(#108),#60,.T.);
#660=ADVANCED_FACE('',(#109,#28,#29,#30,#31,#32,#33,#34,#35),#61,.T.);
#661=ADVANCED_FACE('',(#110),#62,.F.);
#662=CLOSED_SHELL('',(#614,#615,#616,#617,#618,#619,#620,#621,#622,#623,
#624,#625,#626,#627,#628,#629,#630,#631,#632,#633,#634,#635,#636,#637,#638,
#639,#640,#641,#642,#643,#644,#645,#646,#647,#648,#649,#650,#651,#652,#653,
#654,#655,#656,#657,#658,#659,#660,#661));
#663=DERIVED_UNIT_ELEMENT(#665,1.);
#664=DERIVED_UNIT_ELEMENT(#1175,-3.);
#665=(
MASS_UNIT()
NAMED_UNIT(*)
SI_UNIT(.KILO.,.GRAM.)
);
#666=DERIVED_UNIT((#663,#664));
#667=MEASURE_REPRESENTATION_ITEM('density measure',
POSITIVE_RATIO_MEASURE(7850.),#666);
#668=PROPERTY_DEFINITION_REPRESENTATION(#673,#670);
#669=PROPERTY_DEFINITION_REPRESENTATION(#674,#671);
#670=REPRESENTATION('material name',(#672),#1172);
#671=REPRESENTATION('density',(#667),#1172);
#672=DESCRIPTIVE_REPRESENTATION_ITEM('Steel','Steel');
#673=PROPERTY_DEFINITION('material property','material name',#1182);
#674=PROPERTY_DEFINITION('material property','density of part',#1182);
#675=AXIS2_PLACEMENT_3D('',#986,#766,#767);
#676=AXIS2_PLACEMENT_3D('',#987,#768,#769);
#677=AXIS2_PLACEMENT_3D('',#989,#770,#771);
#678=AXIS2_PLACEMENT_3D('',#992,#773,#774);
#679=AXIS2_PLACEMENT_3D('',#993,#775,#776);
#680=AXIS2_PLACEMENT_3D('',#994,#777,#778);
#681=AXIS2_PLACEMENT_3D('',#996,#779,#780);
#682=AXIS2_PLACEMENT_3D('',#999,#782,#783);
#683=AXIS2_PLACEMENT_3D('',#1000,#784,#785);
#684=AXIS2_PLACEMENT_3D('',#1001,#786,#787);
#685=AXIS2_PLACEMENT_3D('',#1003,#788,#789);
#686=AXIS2_PLACEMENT_3D('',#1006,#791,#792);
#687=AXIS2_PLACEMENT_3D('',#1007,#793,#794);
#688=AXIS2_PLACEMENT_3D('',#1008,#795,#796);
#689=AXIS2_PLACEMENT_3D('',#1010,#797,#798);
#690=AXIS2_PLACEMENT_3D('',#1013,#800,#801);
#691=AXIS2_PLACEMENT_3D('',#1014,#802,#803);
#692=AXIS2_PLACEMENT_3D('',#1015,#804,#805);
#693=AXIS2_PLACEMENT_3D('',#1017,#806,#807);
#694=AXIS2_PLACEMENT_3D('',#1020,#809,#810);
#695=AXIS2_PLACEMENT_3D('',#1022,#811,#812);
#696=AXIS2_PLACEMENT_3D('',#1024,#813,#814);
#697=AXIS2_PLACEMENT_3D('',#1025,#815,#816);
#698=AXIS2_PLACEMENT_3D('',#1027,#817,#818);
#699=AXIS2_PLACEMENT_3D('',#1029,#820,#821);
#700=AXIS2_PLACEMENT_3D('',#1031,#823,#824);
#701=AXIS2_PLACEMENT_3D('',#1033,#825,#826);
#702=AXIS2_PLACEMENT_3D('',#1036,#828,#829);
#703=AXIS2_PLACEMENT_3D('',#1038,#830,#831);
#704=AXIS2_PLACEMENT_3D('',#1040,#832,#833);
#705=AXIS2_PLACEMENT_3D('',#1041,#834,#835);
#706=AXIS2_PLACEMENT_3D('',#1043,#836,#837);
#707=AXIS2_PLACEMENT_3D('',#1045,#839,#840);
#708=AXIS2_PLACEMENT_3D('',#1047,#842,#843);
#709=AXIS2_PLACEMENT_3D('',#1049,#844,#845);
#710=AXIS2_PLACEMENT_3D('',#1052,#847,#848);
#711=AXIS2_PLACEMENT_3D('',#1054,#849,#850);
#712=AXIS2_PLACEMENT_3D('',#1056,#851,#852);
#713=AXIS2_PLACEMENT_3D('',#1058,#853,#854);
#714=AXIS2_PLACEMENT_3D('',#1059,#855,#856);
#715=AXIS2_PLACEMENT_3D('',#1061,#857,#858);
#716=AXIS2_PLACEMENT_3D('',#1063,#860,#861);
#717=AXIS2_PLACEMENT_3D('',#1065,#863,#864);
#718=AXIS2_PLACEMENT_3D('',#1067,#865,#866);
#719=AXIS2_PLACEMENT_3D('',#1070,#868,#869);
#720=AXIS2_PLACEMENT_3D('',#1072,#870,#871);
#721=AXIS2_PLACEMENT_3D('',#1074,#872,#873);
#722=AXIS2_PLACEMENT_3D('',#1075,#874,#875);
#723=AXIS2_PLACEMENT_3D('',#1077,#876,#877);
#724=AXIS2_PLACEMENT_3D('',#1079,#879,#880);
#725=AXIS2_PLACEMENT_3D('',#1081,#882,#883);
#726=AXIS2_PLACEMENT_3D('',#1083,#884,#885);
#727=AXIS2_PLACEMENT_3D('',#1085,#886,#887);
#728=AXIS2_PLACEMENT_3D('',#1086,#888,#889);
#729=AXIS2_PLACEMENT_3D('',#1088,#890,#891);
#730=AXIS2_PLACEMENT_3D('',#1090,#893,#894);
#731=AXIS2_PLACEMENT_3D('',#1091,#895,#896);
#732=AXIS2_PLACEMENT_3D('',#1093,#897,#898);
#733=AXIS2_PLACEMENT_3D('',#1096,#900,#901);
#734=AXIS2_PLACEMENT_3D('',#1098,#903,#904);
#735=AXIS2_PLACEMENT_3D('',#1100,#905,#906);
#736=AXIS2_PLACEMENT_3D('',#1102,#907,#908);
#737=AXIS2_PLACEMENT_3D('',#1103,#909,#910);
#738=AXIS2_PLACEMENT_3D('',#1105,#911,#912);
#739=AXIS2_PLACEMENT_3D('',#1107,#914,#915);
#740=AXIS2_PLACEMENT_3D('',#1108,#916,#917);
#741=AXIS2_PLACEMENT_3D('',#1110,#918,#919);
#742=AXIS2_PLACEMENT_3D('',#1112,#920,#921);
#743=AXIS2_PLACEMENT_3D('',#1113,#922,#923);
#744=AXIS2_PLACEMENT_3D('',#1115,#924,#925);
#745=AXIS2_PLACEMENT_3D('',#1117,#927,#928);
#746=AXIS2_PLACEMENT_3D('',#1118,#929,#930);
#747=AXIS2_PLACEMENT_3D('',#1120,#931,#932);
#748=AXIS2_PLACEMENT_3D('',#1122,#933,#934);
#749=AXIS2_PLACEMENT_3D('',#1123,#935,#936);
#750=AXIS2_PLACEMENT_3D('',#1125,#937,#938);
#751=AXIS2_PLACEMENT_3D('',#1127,#940,#941);
#752=AXIS2_PLACEMENT_3D('',#1128,#942,#943);
#753=AXIS2_PLACEMENT_3D('',#1131,#945,#946);
#754=AXIS2_PLACEMENT_3D('',#1132,#947,#948);
#755=AXIS2_PLACEMENT_3D('',#1135,#950,#951);
#756=AXIS2_PLACEMENT_3D('',#1136,#952,#953);
#757=AXIS2_PLACEMENT_3D('',#1139,#955,#956);
#758=AXIS2_PLACEMENT_3D('',#1140,#957,#958);
#759=AXIS2_PLACEMENT_3D('',#1143,#960,#961);
#760=AXIS2_PLACEMENT_3D('',#1144,#962,#963);
#761=AXIS2_PLACEMENT_3D('',#1153,#968,#969);
#762=AXIS2_PLACEMENT_3D('',#1159,#973,#974);
#763=AXIS2_PLACEMENT_3D('',#1165,#978,#979);
#764=AXIS2_PLACEMENT_3D('',#1168,#982,#983);
#765=AXIS2_PLACEMENT_3D('',#1169,#984,#985);
#766=DIRECTION('axis',(0.,0.,1.));
#767=DIRECTION('refdir',(1.,0.,0.));
#768=DIRECTION('center_axis',(0.,0.,-1.));
#769=DIRECTION('ref_axis',(1.,0.,0.));
#770=DIRECTION('center_axis',(0.,0.,-1.));
#771=DIRECTION('ref_axis',(1.,0.,0.));
#772=DIRECTION('',(0.,0.,-1.));
#773=DIRECTION('center_axis',(0.,0.,-1.));
#774=DIRECTION('ref_axis',(1.,0.,0.));
#775=DIRECTION('center_axis',(0.,0.,-1.));
#776=DIRECTION('ref_axis',(1.,0.,0.));
#777=DIRECTION('center_axis',(0.,0.,-1.));
#778=DIRECTION('ref_axis',(1.,0.,0.));
#779=DIRECTION('center_axis',(0.,0.,-1.));
#780=DIRECTION('ref_axis',(1.,0.,0.));
#781=DIRECTION('',(0.,0.,-1.));
#782=DIRECTION('center_axis',(0.,0.,-1.));
#783=DIRECTION('ref_axis',(1.,0.,0.));
#784=DIRECTION('center_axis',(0.,0.,-1.));
#785=DIRECTION('ref_axis',(1.,0.,0.));
#786=DIRECTION('center_axis',(0.,0.,-1.));
#787=DIRECTION('ref_axis',(1.,0.,0.));
#788=DIRECTION('center_axis',(0.,0.,-1.));
#789=DIRECTION('ref_axis',(1.,0.,0.));
#790=DIRECTION('',(0.,0.,-1.));
#791=DIRECTION('center_axis',(0.,0.,-1.));
#792=DIRECTION('ref_axis',(1.,0.,0.));
#793=DIRECTION('center_axis',(0.,0.,-1.));
#794=DIRECTION('ref_axis',(1.,0.,0.));
#795=DIRECTION('center_axis',(0.,0.,-1.));
#796=DIRECTION('ref_axis',(1.,0.,0.));
#797=DIRECTION('center_axis',(0.,0.,-1.));
#798=DIRECTION('ref_axis',(1.,0.,0.));
#799=DIRECTION('',(0.,0.,-1.));
#800=DIRECTION('center_axis',(0.,0.,-1.));
#801=DIRECTION('ref_axis',(1.,0.,0.));
#802=DIRECTION('center_axis',(0.,0.,-1.));
#803=DIRECTION('ref_axis',(1.,0.,0.));
#804=DIRECTION('center_axis',(0.,0.,1.));
#805=DIRECTION('ref_axis',(1.,0.,0.));
#806=DIRECTION('center_axis',(0.,0.,-1.));
#807=DIRECTION('ref_axis',(1.,0.,0.));
#808=DIRECTION('',(0.857167300702112,-1.04972719113862E-16,-0.515038074910054));
#809=DIRECTION('center_axis',(0.,0.,-1.));
#810=DIRECTION('ref_axis',(1.,0.,0.));
#811=DIRECTION('center_axis',(0.,0.,-1.));
#812=DIRECTION('ref_axis',(1.,0.,0.));
#813=DIRECTION('center_axis',(0.,0.,-1.));
#814=DIRECTION('ref_axis',(1.,0.,0.));
#815=DIRECTION('center_axis',(0.,0.,-1.));
#816=DIRECTION('ref_axis',(1.,0.,0.));
#817=DIRECTION('center_axis',(0.,0.,-1.));
#818=DIRECTION('ref_axis',(1.,0.,0.));
#819=DIRECTION('',(0.,0.,-1.));
#820=DIRECTION('center_axis',(0.,0.,-1.));
#821=DIRECTION('ref_axis',(1.,0.,0.));
#822=DIRECTION('',(0.,0.,-1.));
#823=DIRECTION('center_axis',(0.,0.,1.));
#824=DIRECTION('ref_axis',(1.,0.,0.));
#825=DIRECTION('center_axis',(0.,0.,-1.));
#826=DIRECTION('ref_axis',(1.,0.,0.));
#827=DIRECTION('',(0.857167300702112,-1.04972719113862E-16,-0.515038074910054));
#828=DIRECTION('center_axis',(0.,0.,-1.));
#829=DIRECTION('ref_axis',(1.,0.,0.));
#830=DIRECTION('center_axis',(0.,0.,-1.));
#831=DIRECTION('ref_axis',(1.,0.,0.));
#832=DIRECTION('center_axis',(0.,0.,-1.));
#833=DIRECTION('ref_axis',(1.,0.,0.));
#834=DIRECTION('center_axis',(0.,0.,-1.));
#835=DIRECTION('ref_axis',(1.,0.,0.));
#836=DIRECTION('center_axis',(0.,0.,-1.));
#837=DIRECTION('ref_axis',(1.,0.,0.));
#838=DIRECTION('',(0.,0.,-1.));
#839=DIRECTION('center_axis',(0.,0.,-1.));
#840=DIRECTION('ref_axis',(1.,0.,0.));
#841=DIRECTION('',(0.,0.,-1.));
#842=DIRECTION('center_axis',(0.,0.,1.));
#843=DIRECTION('ref_axis',(1.,0.,0.));
#844=DIRECTION('center_axis',(0.,0.,-1.));
#845=DIRECTION('ref_axis',(1.,0.,0.));
#846=DIRECTION('',(0.857167300702112,-1.04972719113862E-16,-0.515038074910054));
#847=DIRECTION('center_axis',(0.,0.,-1.));
#848=DIRECTION('ref_axis',(1.,0.,0.));
#849=DIRECTION('center_axis',(0.,0.,-1.));
#850=DIRECTION('ref_axis',(1.,0.,0.));
#851=DIRECTION('center_axis',(0.,0.,1.));
#852=DIRECTION('ref_axis',(1.,0.,0.));
#853=DIRECTION('center_axis',(0.,0.,-1.));
#854=DIRECTION('ref_axis',(1.,0.,0.));
#855=DIRECTION('center_axis',(0.,0.,-1.));
#856=DIRECTION('ref_axis',(1.,0.,0.));
#857=DIRECTION('center_axis',(0.,0.,-1.));
#858=DIRECTION('ref_axis',(1.,0.,0.));
#859=DIRECTION('',(0.,0.,-1.));
#860=DIRECTION('center_axis',(0.,0.,-1.));
#861=DIRECTION('ref_axis',(1.,0.,0.));
#862=DIRECTION('',(0.,0.,-1.));
#863=DIRECTION('center_axis',(0.,0.,1.));
#864=DIRECTION('ref_axis',(1.,0.,0.));
#865=DIRECTION('center_axis',(0.,0.,-1.));
#866=DIRECTION('ref_axis',(1.,0.,0.));
#867=DIRECTION('',(0.857167300702112,-1.04972719113862E-16,-0.515038074910054));
#868=DIRECTION('center_axis',(0.,0.,-1.));
#869=DIRECTION('ref_axis',(1.,0.,0.));
#870=DIRECTION('center_axis',(0.,0.,-1.));
#871=DIRECTION('ref_axis',(1.,0.,0.));
#872=DIRECTION('center_axis',(0.,0.,-1.));
#873=DIRECTION('ref_axis',(1.,0.,0.));
#874=DIRECTION('center_axis',(0.,0.,-1.));
#875=DIRECTION('ref_axis',(1.,0.,0.));
#876=DIRECTION('center_axis',(0.,0.,-1.));
#877=DIRECTION('ref_axis',(1.,0.,0.));
#878=DIRECTION('',(0.,0.,-1.));
#879=DIRECTION('center_axis',(0.,0.,-1.));
#880=DIRECTION('ref_axis',(1.,0.,0.));
#881=DIRECTION('',(0.,0.,-1.));
#882=DIRECTION('center_axis',(0.,0.,-1.));
#883=DIRECTION('ref_axis',(-1.,0.,0.));
#884=DIRECTION('center_axis',(0.,0.,-1.));
#885=DIRECTION('ref_axis',(1.,0.,0.));
#886=DIRECTION('center_axis',(0.,0.,-1.));
#887=DIRECTION('ref_axis',(1.,0.,0.));
#888=DIRECTION('center_axis',(0.,0.,1.));
#889=DIRECTION('ref_axis',(1.,0.,0.));
#890=DIRECTION('center_axis',(0.,0.,1.));
#891=DIRECTION('ref_axis',(1.,0.,0.));
#892=DIRECTION('',(0.,0.,-1.));
#893=DIRECTION('center_axis',(0.,0.,1.));
#894=DIRECTION('ref_axis',(1.,0.,0.));
#895=DIRECTION('center_axis',(0.,0.,1.));
#896=DIRECTION('ref_axis',(1.,0.,0.));
#897=DIRECTION('center_axis',(0.,0.,-1.));
#898=DIRECTION('ref_axis',(1.,0.,0.));
#899=DIRECTION('',(0.857167300702112,-1.04972719113862E-16,-0.515038074910054));
#900=DIRECTION('center_axis',(0.,0.,-1.));
#901=DIRECTION('ref_axis',(1.,0.,0.));
#902=DIRECTION('',(0.,0.,-1.));
#903=DIRECTION('center_axis',(0.,0.,-1.));
#904=DIRECTION('ref_axis',(-1.,0.,0.));
#905=DIRECTION('center_axis',(0.,0.,-1.));
#906=DIRECTION('ref_axis',(1.,0.,0.));
#907=DIRECTION('center_axis',(0.,0.,1.));
#908=DIRECTION('ref_axis',(1.,0.,0.));
#909=DIRECTION('center_axis',(0.,0.,1.));
#910=DIRECTION('ref_axis',(1.,0.,0.));
#911=DIRECTION('center_axis',(0.,0.,1.));
#912=DIRECTION('ref_axis',(1.,0.,0.));
#913=DIRECTION('',(0.,0.,-1.));
#914=DIRECTION('center_axis',(0.,0.,1.));
#915=DIRECTION('ref_axis',(1.,0.,0.));
#916=DIRECTION('center_axis',(0.,0.,-1.));
#917=DIRECTION('ref_axis',(-1.,0.,0.));
#918=DIRECTION('center_axis',(0.,0.,-1.));
#919=DIRECTION('ref_axis',(1.,0.,0.));
#920=DIRECTION('center_axis',(0.,0.,-1.));
#921=DIRECTION('ref_axis',(1.,0.,0.));
#922=DIRECTION('center_axis',(0.,0.,1.));
#923=DIRECTION('ref_axis',(1.,0.,0.));
#924=DIRECTION('center_axis',(0.,0.,1.));
#925=DIRECTION('ref_axis',(1.,0.,0.));
#926=DIRECTION('',(0.,0.,-1.));
#927=DIRECTION('center_axis',(0.,0.,1.));
#928=DIRECTION('ref_axis',(1.,0.,0.));
#929=DIRECTION('center_axis',(0.,0.,-1.));
#930=DIRECTION('ref_axis',(-1.,0.,0.));
#931=DIRECTION('center_axis',(0.,0.,-1.));
#932=DIRECTION('ref_axis',(1.,0.,0.));
#933=DIRECTION('center_axis',(0.,0.,-1.));
#934=DIRECTION('ref_axis',(1.,0.,0.));
#935=DIRECTION('center_axis',(0.,0.,1.));
#936=DIRECTION('ref_axis',(1.,0.,0.));
#937=DIRECTION('center_axis',(0.,0.,1.));
#938=DIRECTION('ref_axis',(1.,0.,0.));
#939=DIRECTION('',(0.,0.,-1.));
#940=DIRECTION('center_axis',(0.,0.,1.));
#941=DIRECTION('ref_axis',(1.,0.,0.));
#942=DIRECTION('center_axis',(0.,0.,1.));
#943=DIRECTION('ref_axis',(1.,0.,0.));
#944=DIRECTION('',(0.,0.,-1.));
#945=DIRECTION('center_axis',(0.,0.,-1.));
#946=DIRECTION('ref_axis',(1.,0.,0.));
#947=DIRECTION('center_axis',(0.,0.,1.));
#948=DIRECTION('ref_axis',(1.,0.,0.));
#949=DIRECTION('',(0.,0.,-1.));
#950=DIRECTION('center_axis',(0.,0.,-1.));
#951=DIRECTION('ref_axis',(1.,0.,0.));
#952=DIRECTION('center_axis',(0.,0.,1.));
#953=DIRECTION('ref_axis',(1.,0.,0.));
#954=DIRECTION('',(0.,0.,-1.));
#955=DIRECTION('center_axis',(0.,0.,-1.));
#956=DIRECTION('ref_axis',(1.,0.,0.));
#957=DIRECTION('center_axis',(0.,0.,1.));
#958=DIRECTION('ref_axis',(1.,0.,0.));
#959=DIRECTION('',(0.,0.,-1.));
#960=DIRECTION('center_axis',(0.,0.,-1.));
#961=DIRECTION('ref_axis',(1.,0.,0.));
#962=DIRECTION('center_axis',(-1.,0.,0.));
#963=DIRECTION('ref_axis',(0.,-1.,0.));
#964=DIRECTION('',(0.,1.,0.));
#965=DIRECTION('',(0.,0.,1.));
#966=DIRECTION('',(0.,-1.,0.));
#967=DIRECTION('',(0.,0.,1.));
#968=DIRECTION('center_axis',(0.,1.,0.));
#969=DIRECTION('ref_axis',(-1.,0.,0.));
#970=DIRECTION('',(1.,0.,0.));
#971=DIRECTION('',(-1.,0.,0.));
#972=DIRECTION('',(0.,0.,1.));
#973=DIRECTION('center_axis',(1.,0.,0.));
#974=DIRECTION('ref_axis',(0.,1.,0.));
#975=DIRECTION('',(0.,-1.,0.));
#976=DIRECTION('',(0.,1.,0.));
#977=DIRECTION('',(0.,0.,1.));
#978=DIRECTION('center_axis',(0.,-1.,0.));
#979=DIRECTION('ref_axis',(1.,0.,0.));
#980=DIRECTION('',(-1.,0.,0.));
#981=DIRECTION('',(1.,0.,0.));
#982=DIRECTION('center_axis',(0.,0.,1.));
#983=DIRECTION('ref_axis',(1.,0.,0.));
#984=DIRECTION('center_axis',(0.,0.,1.));
#985=DIRECTION('ref_axis',(1.,0.,0.));
#986=CARTESIAN_POINT('',(0.,0.,0.));
#987=CARTESIAN_POINT('Origin',(-97.3791102144777,96.7550888369724,4.));
#988=CARTESIAN_POINT('',(-98.5791102144777,96.7550888369724,5.));
#989=CARTESIAN_POINT('Origin',(-97.3791102144777,96.7550888369724,5.));
#990=CARTESIAN_POINT('',(-98.5791102144777,96.7550888369724,3.));
#991=CARTESIAN_POINT('',(-98.5791102144777,96.7550888369724,4.));
#992=CARTESIAN_POINT('Origin',(-97.3791102144777,96.7550888369724,3.));
#993=CARTESIAN_POINT('Origin',(-97.3791102144777,96.7550888369724,3.));
#994=CARTESIAN_POINT('Origin',(-27.9953026120255,96.5054802859703,4.));
#995=CARTESIAN_POINT('',(-29.4953026120255,96.5054802859703,5.));
#996=CARTESIAN_POINT('Origin',(-27.9953026120255,96.5054802859703,5.));
#997=CARTESIAN_POINT('',(-29.4953026120255,96.5054802859703,3.));
#998=CARTESIAN_POINT('',(-29.4953026120255,96.5054802859703,4.));
#999=CARTESIAN_POINT('Origin',(-27.9953026120255,96.5054802859703,3.));
#1000=CARTESIAN_POINT('Origin',(-27.9953026120255,96.5054802859703,3.));
#1001=CARTESIAN_POINT('Origin',(-28.2449111630276,2.99530261202547,4.));
#1002=CARTESIAN_POINT('',(-29.7449111630276,2.99530261202547,5.));
#1003=CARTESIAN_POINT('Origin',(-28.2449111630276,2.99530261202547,5.));
#1004=CARTESIAN_POINT('',(-29.7449111630276,2.99530261202547,3.));
#1005=CARTESIAN_POINT('',(-29.7449111630276,2.99530261202547,4.));
#1006=CARTESIAN_POINT('Origin',(-28.2449111630276,2.99530261202547,3.));
#1007=CARTESIAN_POINT('Origin',(-28.2449111630276,2.99530261202547,3.));
#1008=CARTESIAN_POINT('Origin',(-96.1310674594671,4.74256246904032,4.));
#1009=CARTESIAN_POINT('',(-97.6310674594671,4.74256246904032,5.));
#1010=CARTESIAN_POINT('Origin',(-96.1310674594671,4.74256246904032,5.));
#1011=CARTESIAN_POINT('',(-97.6310674594671,4.74256246904032,3.));
#1012=CARTESIAN_POINT('',(-97.6310674594671,4.74256246904032,4.));
#1013=CARTESIAN_POINT('Origin',(-96.1310674594671,4.74256246904032,3.));
#1014=CARTESIAN_POINT('Origin',(-96.1310674594671,4.74256246904032,3.));
#1015=CARTESIAN_POINT('Origin',(-39.5297598838806,11.5445303916931,27.9714591205962));
#1016=CARTESIAN_POINT('',(-39.6247598838806,11.5445303916931,28.));
#1017=CARTESIAN_POINT('Origin',(-39.5297598838806,11.5445303916931,28.));
#1018=CARTESIAN_POINT('',(-39.5297598838806,11.5445303916931,27.9429182411924));
#1019=CARTESIAN_POINT('',(-39.5772598838806,11.5445303916931,27.9714591205962));
#1020=CARTESIAN_POINT('Origin',(-39.5297598838806,11.5445303916931,32.));
#1021=CARTESIAN_POINT('',(-40.7297598838806,11.5445303916931,32.));
#1022=CARTESIAN_POINT('Origin',(-39.5297598838806,11.5445303916931,32.));
#1023=CARTESIAN_POINT('',(-39.6247598838806,11.5445303916931,32.));
#1024=CARTESIAN_POINT('Origin',(-39.5297598838806,11.5445303916931,32.));
#1025=CARTESIAN_POINT('Origin',(-39.5297598838806,11.5445303916931,32.5));
#1026=CARTESIAN_POINT('',(-40.7297598838806,11.5445303916931,33.));
#1027=CARTESIAN_POINT('Origin',(-39.5297598838806,11.5445303916931,33.));
#1028=CARTESIAN_POINT('',(-40.7297598838806,11.5445303916931,32.5));
#1029=CARTESIAN_POINT('Origin',(-39.5297598838806,11.5445303916931,30.5));
#1030=CARTESIAN_POINT('',(-39.6247598838806,11.5445303916931,30.5));
#1031=CARTESIAN_POINT('Origin',(-39.2616439376758,90.4676251011915,27.9714591205962));
#1032=CARTESIAN_POINT('',(-39.3566439376758,90.4676251011915,28.));
#1033=CARTESIAN_POINT('Origin',(-39.2616439376758,90.4676251011915,28.));
#1034=CARTESIAN_POINT('',(-39.2616439376758,90.4676251011915,27.9429182411924));
#1035=CARTESIAN_POINT('',(-39.3091439376758,90.4676251011915,27.9714591205962));
#1036=CARTESIAN_POINT('Origin',(-39.2616439376758,90.4676251011915,28.5));
#1037=CARTESIAN_POINT('',(-40.4616439376758,90.4676251011915,28.5));
#1038=CARTESIAN_POINT('Origin',(-39.2616439376758,90.4676251011915,28.5));
#1039=CARTESIAN_POINT('',(-39.3566439376758,90.4676251011915,28.5));
#1040=CARTESIAN_POINT('Origin',(-39.2616439376758,90.4676251011915,28.5));
#1041=CARTESIAN_POINT('Origin',(-39.2616439376758,90.4676251011915,30.75));
#1042=CARTESIAN_POINT('',(-40.4616439376758,90.4676251011915,33.));
#1043=CARTESIAN_POINT('Origin',(-39.2616439376758,90.4676251011915,33.));
#1044=CARTESIAN_POINT('',(-40.4616439376758,90.4676251011915,30.75));
#1045=CARTESIAN_POINT('Origin',(-39.2616439376758,90.4676251011915,30.5));
#1046=CARTESIAN_POINT('',(-39.3566439376758,90.4676251011915,30.5));
#1047=CARTESIAN_POINT('Origin',(-84.5438385009766,90.5438137054443,22.9714591205962));
#1048=CARTESIAN_POINT('',(-84.6388385009766,90.5438137054443,23.));
#1049=CARTESIAN_POINT('Origin',(-84.5438385009766,90.5438137054443,23.));
#1050=CARTESIAN_POINT('',(-84.5438385009766,90.5438137054443,22.9429182411924));
#1051=CARTESIAN_POINT('',(-84.5913385009766,90.5438137054443,22.9714591205962));
#1052=CARTESIAN_POINT('Origin',(-84.5438385009766,90.5438137054443,32.));
#1053=CARTESIAN_POINT('',(-85.7438385009766,90.5438137054443,32.));
#1054=CARTESIAN_POINT('Origin',(-84.5438385009766,90.5438137054443,32.));
#1055=CARTESIAN_POINT('',(-84.9899124234095,90.0437252453268,32.));
#1056=CARTESIAN_POINT('Origin',(-84.8949124234095,90.0437252453268,32.));
#1057=CARTESIAN_POINT('',(-84.6388385009766,90.5438137054443,32.));
#1058=CARTESIAN_POINT('Origin',(-84.5438385009766,90.5438137054443,32.));
#1059=CARTESIAN_POINT('Origin',(-84.5438385009766,90.5438137054443,32.5));
#1060=CARTESIAN_POINT('',(-85.7438385009766,90.5438137054443,33.));
#1061=CARTESIAN_POINT('Origin',(-84.5438385009766,90.5438137054443,33.));
#1062=CARTESIAN_POINT('',(-85.7438385009766,90.5438137054443,32.5));
#1063=CARTESIAN_POINT('Origin',(-84.5438385009766,90.5438137054443,28.));
#1064=CARTESIAN_POINT('',(-84.6388385009766,90.5438137054443,28.));
#1065=CARTESIAN_POINT('Origin',(-84.8949124234095,9.73520004408066,30.5714591205962));
#1066=CARTESIAN_POINT('',(-84.9899124234095,9.73520004408066,30.6));
#1067=CARTESIAN_POINT('Origin',(-84.8949124234095,9.73520004408066,30.6));
#1068=CARTESIAN_POINT('',(-84.8949124234095,9.73520004408066,30.5429182411924));
#1069=CARTESIAN_POINT('',(-84.9424124234095,9.73520004408066,30.5714591205962));
#1070=CARTESIAN_POINT('Origin',(-84.8949124234095,9.73520004408066,32.));
#1071=CARTESIAN_POINT('',(-86.0949124234095,9.73520004408066,32.));
#1072=CARTESIAN_POINT('Origin',(-84.8949124234095,9.73520004408066,32.));
#1073=CARTESIAN_POINT('',(-84.9899124234095,9.73520004408066,32.));
#1074=CARTESIAN_POINT('Origin',(-84.8949124234095,9.73520004408066,32.));
#1075=CARTESIAN_POINT('Origin',(-84.8949124234095,9.73520004408066,32.5));
#1076=CARTESIAN_POINT('',(-86.0949124234095,9.73520004408066,33.));
#1077=CARTESIAN_POINT('Origin',(-84.8949124234095,9.73520004408066,33.));
#1078=CARTESIAN_POINT('',(-86.0949124234095,9.73520004408066,32.5));
#1079=CARTESIAN_POINT('Origin',(-84.8949124234095,9.73520004408066,31.8));
#1080=CARTESIAN_POINT('',(-84.9899124234095,9.73520004408066,31.8));
#1081=CARTESIAN_POINT('Origin',(-85.,10.,28.));
#1082=CARTESIAN_POINT('',(-89.,10.,28.));
#1083=CARTESIAN_POINT('Origin',(-85.,10.,28.));
#1084=CARTESIAN_POINT('',(-87.4505,10.,28.));
#1085=CARTESIAN_POINT('Origin',(-85.,10.,28.));
#1086=CARTESIAN_POINT('Origin',(-85.,10.,30.5));
#1087=CARTESIAN_POINT('',(-89.,10.,33.));
#1088=CARTESIAN_POINT('Origin',(-85.,10.,33.));
#1089=CARTESIAN_POINT('',(-89.,10.,30.5));
#1090=CARTESIAN_POINT('Origin',(-85.,10.,33.));
#1091=CARTESIAN_POINT('Origin',(-84.8949124234095,90.0437252453268,30.5714591205962));
#1092=CARTESIAN_POINT('',(-84.9899124234095,90.0437252453268,30.6));
#1093=CARTESIAN_POINT('Origin',(-84.8949124234095,90.0437252453268,30.6));
#1094=CARTESIAN_POINT('',(-84.8949124234095,90.0437252453268,30.5429182411924));
#1095=CARTESIAN_POINT('',(-84.9424124234095,90.0437252453268,30.5714591205962));
#1096=CARTESIAN_POINT('Origin',(-84.8949124234095,90.0437252453268,31.8));
#1097=CARTESIAN_POINT('',(-84.9899124234095,90.0437252453268,31.8));
#1098=CARTESIAN_POINT('Origin',(-40.,10.,28.));
#1099=CARTESIAN_POINT('',(-44.,10.,28.));
#1100=CARTESIAN_POINT('Origin',(-40.,10.,28.));
#1101=CARTESIAN_POINT('',(-42.204,10.,28.));
#1102=CARTESIAN_POINT('Origin',(-40.,10.,28.));
#1103=CARTESIAN_POINT('Origin',(-40.,10.,30.5));
#1104=CARTESIAN_POINT('',(-44.,10.,33.));
#1105=CARTESIAN_POINT('Origin',(-40.,10.,33.));
#1106=CARTESIAN_POINT('',(-44.,10.,30.5));
#1107=CARTESIAN_POINT('Origin',(-40.,10.,33.));
#1108=CARTESIAN_POINT('Origin',(-85.,90.,28.));
#1109=CARTESIAN_POINT('',(-89.,90.,28.));
#1110=CARTESIAN_POINT('Origin',(-85.,90.,28.));
#1111=CARTESIAN_POINT('',(-87.204,90.,28.));
#1112=CARTESIAN_POINT('Origin',(-85.,90.,28.));
#1113=CARTESIAN_POINT('Origin',(-85.,90.,30.5));
#1114=CARTESIAN_POINT('',(-89.,90.,33.));
#1115=CARTESIAN_POINT('Origin',(-85.,90.,33.));
#1116=CARTESIAN_POINT('',(-89.,90.,30.5));
#1117=CARTESIAN_POINT('Origin',(-85.,90.,33.));
#1118=CARTESIAN_POINT('Origin',(-40.,90.,28.));
#1119=CARTESIAN_POINT('',(-44.,90.,28.));
#1120=CARTESIAN_POINT('Origin',(-40.,90.,28.));
#1121=CARTESIAN_POINT('',(-42.204,90.,28.));
#1122=CARTESIAN_POINT('Origin',(-40.,90.,28.));
#1123=CARTESIAN_POINT('Origin',(-40.,90.,30.5));
#1124=CARTESIAN_POINT('',(-44.,90.,33.));
#1125=CARTESIAN_POINT('Origin',(-40.,90.,33.));
#1126=CARTESIAN_POINT('',(-44.,90.,30.5));
#1127=CARTESIAN_POINT('Origin',(-40.,90.,33.));
#1128=CARTESIAN_POINT('Origin',(-40.,10.,16.5));
#1129=CARTESIAN_POINT('',(-42.204,10.,5.));
#1130=CARTESIAN_POINT('',(-42.204,10.,16.5));
#1131=CARTESIAN_POINT('Origin',(-40.,10.,5.));
#1132=CARTESIAN_POINT('Origin',(-85.,10.,16.5));
#1133=CARTESIAN_POINT('',(-87.4505,10.,5.));
#1134=CARTESIAN_POINT('',(-87.4505,10.,16.5));
#1135=CARTESIAN_POINT('Origin',(-85.,10.,5.));
#1136=CARTESIAN_POINT('Origin',(-85.,90.,16.5));
#1137=CARTESIAN_POINT('',(-87.204,90.,5.));
#1138=CARTESIAN_POINT('',(-87.204,90.,16.5));
#1139=CARTESIAN_POINT('Origin',(-85.,90.,5.));
#1140=CARTESIAN_POINT('Origin',(-40.,90.,16.5));
#1141=CARTESIAN_POINT('',(-42.204,90.,5.));
#1142=CARTESIAN_POINT('',(-42.204,90.,16.5));
#1143=CARTESIAN_POINT('Origin',(-40.,90.,5.));
#1144=CARTESIAN_POINT('Origin',(-100.,100.,0.));
#1145=CARTESIAN_POINT('',(-100.,0.,0.));
#1146=CARTESIAN_POINT('',(-100.,100.,0.));
#1147=CARTESIAN_POINT('',(-100.,0.,0.));
#1148=CARTESIAN_POINT('',(-100.,0.,5.));
#1149=CARTESIAN_POINT('',(-100.,0.,0.));
#1150=CARTESIAN_POINT('',(-100.,100.,5.));
#1151=CARTESIAN_POINT('',(-100.,0.,5.));
#1152=CARTESIAN_POINT('',(-100.,100.,0.));
#1153=CARTESIAN_POINT('Origin',(-25.,100.,0.));
#1154=CARTESIAN_POINT('',(-25.,100.,0.));
#1155=CARTESIAN_POINT('',(-100.,100.,0.));
#1156=CARTESIAN_POINT('',(-25.,100.,5.));
#1157=CARTESIAN_POINT('',(-100.,100.,5.));
#1158=CARTESIAN_POINT('',(-25.,100.,0.));
#1159=CARTESIAN_POINT('Origin',(-25.,0.,0.));
#1160=CARTESIAN_POINT('',(-25.,0.,0.));
#1161=CARTESIAN_POINT('',(-25.,100.,0.));
#1162=CARTESIAN_POINT('',(-25.,0.,5.));
#1163=CARTESIAN_POINT('',(-25.,100.,5.));
#1164=CARTESIAN_POINT('',(-25.,0.,0.));
#1165=CARTESIAN_POINT('Origin',(-100.,0.,0.));
#1166=CARTESIAN_POINT('',(-25.,0.,0.));
#1167=CARTESIAN_POINT('',(-25.,0.,5.));
#1168=CARTESIAN_POINT('Origin',(-62.5,50.,5.));
#1169=CARTESIAN_POINT('Origin',(-62.5,50.,0.));
#1170=UNCERTAINTY_MEASURE_WITH_UNIT(LENGTH_MEASURE(0.01),#1174,
'DISTANCE_ACCURACY_VALUE',
'Maximum model space distance between geometric entities at asserted c
onnectivities');
#1171=UNCERTAINTY_MEASURE_WITH_UNIT(LENGTH_MEASURE(0.01),#1174,
'DISTANCE_ACCURACY_VALUE',
'Maximum model space distance between geometric entities at asserted c
onnectivities');
#1172=(
GEOMETRIC_REPRESENTATION_CONTEXT(3)
GLOBAL_UNCERTAINTY_ASSIGNED_CONTEXT((#1170))
GLOBAL_UNIT_ASSIGNED_CONTEXT((#1174,#1176,#1177))
REPRESENTATION_CONTEXT('','3D')
);
#1173=(
GEOMETRIC_REPRESENTATION_CONTEXT(3)
GLOBAL_UNCERTAINTY_ASSIGNED_CONTEXT((#1171))
GLOBAL_UNIT_ASSIGNED_CONTEXT((#1174,#1176,#1177))
REPRESENTATION_CONTEXT('','3D')
);
#1174=(
LENGTH_UNIT()
NAMED_UNIT(*)
SI_UNIT(.MILLI.,.METRE.)
);
#1175=(
LENGTH_UNIT()
NAMED_UNIT(*)
SI_UNIT($,.METRE.)
);
#1176=(
NAMED_UNIT(*)
PLANE_ANGLE_UNIT()
SI_UNIT($,.RADIAN.)
);
#1177=(
NAMED_UNIT(*)
SI_UNIT($,.STERADIAN.)
SOLID_ANGLE_UNIT()
);
#1178=SHAPE_DEFINITION_REPRESENTATION(#1179,#1180);
#1179=PRODUCT_DEFINITION_SHAPE('',$,#1182);
#1180=SHAPE_REPRESENTATION('',(#675),#1172);
#1181=PRODUCT_DEFINITION_CONTEXT('part definition',#1186,'design');
#1182=PRODUCT_DEFINITION('2026-08-22-00-20-55-694','base_macropad',#1183,
#1181);
#1183=PRODUCT_DEFINITION_FORMATION('',$,#1188);
#1184=PRODUCT_RELATED_PRODUCT_CATEGORY('base_macropad','base_macropad',
(#1188));
#1185=APPLICATION_PROTOCOL_DEFINITION('international standard',
'automotive_design',2009,#1186);
#1186=APPLICATION_CONTEXT(
'Core Data for Automotive Mechanical Design Process');
#1187=PRODUCT_CONTEXT('part definition',#1186,'mechanical');
#1188=PRODUCT('2026-08-22-00-20-55-694','base_macropad',$,(#1187));
#1189=PRESENTATION_STYLE_ASSIGNMENT((#1190));
#1190=SURFACE_STYLE_USAGE(.BOTH.,#1191);
#1191=SURFACE_SIDE_STYLE('',(#1192));
#1192=SURFACE_STYLE_FILL_AREA(#1193);
#1193=FILL_AREA_STYLE('Steel - Satin',(#1194));
#1194=FILL_AREA_STYLE_COLOUR('Steel - Satin',#1195);
#1195=COLOUR_RGB('Steel - Satin',0.627450980392157,0.627450980392157,0.627450980392157);
ENDSEC;
END-ISO-10303-21;
