ISO-10303-21;
HEADER;
/* Generated by software containing ST-Developer
 * from STEP Tools, Inc. (www.steptools.com) 
 */

FILE_DESCRIPTION(
/* description */ (''),
/* implementation_level */ '2;1');

FILE_NAME(
/* name */ 'middle_macropad.step',
/* time_stamp */ '2026-08-22T11:34:05+06:00',
/* author */ (''),
/* organization */ (''),
/* preprocessor_version */ 'ST-DEVELOPER v20.1',
/* originating_system */ 'Autodesk Translation Framework v15.8.0.0',
/* authorisation */ '');

FILE_SCHEMA (('AUTOMOTIVE_DESIGN { 1 0 10303 214 3 1 1 }'));
ENDSEC;

DATA;
#10=MECHANICAL_DESIGN_GEOMETRIC_PRESENTATION_REPRESENTATION('',(#13),#838);
#11=SHAPE_REPRESENTATION_RELATIONSHIP('SRR','None',#845,#12);
#12=ADVANCED_BREP_SHAPE_REPRESENTATION('',(#14),#837);
#13=STYLED_ITEM('',(#854),#14);
#14=MANIFOLD_SOLID_BREP('Body1',#512);
#15=FACE_BOUND('',#82,.T.);
#16=FACE_BOUND('',#83,.T.);
#17=FACE_BOUND('',#84,.T.);
#18=FACE_BOUND('',#85,.T.);
#19=FACE_BOUND('',#93,.T.);
#20=FACE_BOUND('',#95,.T.);
#21=FACE_BOUND('',#100,.T.);
#22=FACE_BOUND('',#105,.T.);
#23=FACE_BOUND('',#109,.T.);
#24=FACE_BOUND('',#110,.T.);
#25=FACE_BOUND('',#111,.T.);
#26=FACE_BOUND('',#112,.T.);
#27=FACE_BOUND('',#113,.T.);
#28=PLANE('',#535);
#29=PLANE('',#544);
#30=PLANE('',#545);
#31=PLANE('',#546);
#32=PLANE('',#547);
#33=PLANE('',#548);
#34=PLANE('',#549);
#35=PLANE('',#550);
#36=PLANE('',#551);
#37=PLANE('',#552);
#38=PLANE('',#553);
#39=PLANE('',#554);
#40=PLANE('',#555);
#41=PLANE('',#556);
#42=PLANE('',#557);
#43=PLANE('',#558);
#44=PLANE('',#559);
#45=PLANE('',#560);
#46=PLANE('',#561);
#47=PLANE('',#562);
#48=PLANE('',#563);
#49=FACE_OUTER_BOUND('',#75,.T.);
#50=FACE_OUTER_BOUND('',#76,.T.);
#51=FACE_OUTER_BOUND('',#77,.T.);
#52=FACE_OUTER_BOUND('',#78,.T.);
#53=FACE_OUTER_BOUND('',#79,.T.);
#54=FACE_OUTER_BOUND('',#80,.T.);
#55=FACE_OUTER_BOUND('',#81,.T.);
#56=FACE_OUTER_BOUND('',#86,.T.);
#57=FACE_OUTER_BOUND('',#87,.T.);
#58=FACE_OUTER_BOUND('',#88,.T.);
#59=FACE_OUTER_BOUND('',#89,.T.);
#60=FACE_OUTER_BOUND('',#90,.T.);
#61=FACE_OUTER_BOUND('',#91,.T.);
#62=FACE_OUTER_BOUND('',#92,.T.);
#63=FACE_OUTER_BOUND('',#94,.T.);
#64=FACE_OUTER_BOUND('',#96,.T.);
#65=FACE_OUTER_BOUND('',#97,.T.);
#66=FACE_OUTER_BOUND('',#98,.T.);
#67=FACE_OUTER_BOUND('',#99,.T.);
#68=FACE_OUTER_BOUND('',#101,.T.);
#69=FACE_OUTER_BOUND('',#102,.T.);
#70=FACE_OUTER_BOUND('',#103,.T.);
#71=FACE_OUTER_BOUND('',#104,.T.);
#72=FACE_OUTER_BOUND('',#106,.T.);
#73=FACE_OUTER_BOUND('',#107,.T.);
#74=FACE_OUTER_BOUND('',#108,.T.);
#75=EDGE_LOOP('',(#347,#348,#349,#350));
#76=EDGE_LOOP('',(#351,#352,#353,#354));
#77=EDGE_LOOP('',(#355,#356,#357,#358));
#78=EDGE_LOOP('',(#359,#360,#361));
#79=EDGE_LOOP('',(#362,#363,#364,#365,#366,#367));
#80=EDGE_LOOP('',(#368,#369,#370,#371));
#81=EDGE_LOOP('',(#372,#373,#374,#375));
#82=EDGE_LOOP('',(#376));
#83=EDGE_LOOP('',(#377));
#84=EDGE_LOOP('',(#378,#379,#380,#381,#382,#383));
#85=EDGE_LOOP('',(#384));
#86=EDGE_LOOP('',(#385,#386,#387,#388));
#87=EDGE_LOOP('',(#389,#390,#391,#392,#393));
#88=EDGE_LOOP('',(#394,#395,#396,#397));
#89=EDGE_LOOP('',(#398,#399,#400,#401));
#90=EDGE_LOOP('',(#402,#403,#404,#405,#406));
#91=EDGE_LOOP('',(#407,#408,#409,#410));
#92=EDGE_LOOP('',(#411,#412,#413,#414));
#93=EDGE_LOOP('',(#415,#416,#417,#418));
#94=EDGE_LOOP('',(#419,#420,#421,#422));
#95=EDGE_LOOP('',(#423,#424,#425,#426));
#96=EDGE_LOOP('',(#427,#428,#429,#430));
#97=EDGE_LOOP('',(#431,#432,#433,#434));
#98=EDGE_LOOP('',(#435,#436,#437,#438));
#99=EDGE_LOOP('',(#439,#440,#441,#442));
#100=EDGE_LOOP('',(#443));
#101=EDGE_LOOP('',(#444,#445,#446,#447));
#102=EDGE_LOOP('',(#448,#449,#450,#451));
#103=EDGE_LOOP('',(#452,#453,#454,#455));
#104=EDGE_LOOP('',(#456,#457,#458,#459));
#105=EDGE_LOOP('',(#460));
#106=EDGE_LOOP('',(#461,#462,#463,#464));
#107=EDGE_LOOP('',(#465,#466,#467,#468));
#108=EDGE_LOOP('',(#469,#470,#471,#472));
#109=EDGE_LOOP('',(#473));
#110=EDGE_LOOP('',(#474));
#111=EDGE_LOOP('',(#475));
#112=EDGE_LOOP('',(#476));
#113=EDGE_LOOP('',(#477,#478,#479,#480));
#114=LINE('',#702,#169);
#115=LINE('',#708,#170);
#116=LINE('',#714,#171);
#117=LINE('',#719,#172);
#118=LINE('',#722,#173);
#119=LINE('',#728,#174);
#120=LINE('',#734,#175);
#121=LINE('',#739,#176);
#122=LINE('',#741,#177);
#123=LINE('',#743,#178);
#124=LINE('',#744,#179);
#125=LINE('',#746,#180);
#126=LINE('',#748,#181);
#127=LINE('',#750,#182);
#128=LINE('',#751,#183);
#129=LINE('',#754,#184);
#130=LINE('',#756,#185);
#131=LINE('',#757,#186);
#132=LINE('',#760,#187);
#133=LINE('',#761,#188);
#134=LINE('',#764,#189);
#135=LINE('',#766,#190);
#136=LINE('',#767,#191);
#137=LINE('',#770,#192);
#138=LINE('',#771,#193);
#139=LINE('',#774,#194);
#140=LINE('',#775,#195);
#141=LINE('',#777,#196);
#142=LINE('',#781,#197);
#143=LINE('',#783,#198);
#144=LINE('',#785,#199);
#145=LINE('',#786,#200);
#146=LINE('',#790,#201);
#147=LINE('',#792,#202);
#148=LINE('',#794,#203);
#149=LINE('',#795,#204);
#150=LINE('',#797,#205);
#151=LINE('',#798,#206);
#152=LINE('',#800,#207);
#153=LINE('',#805,#208);
#154=LINE('',#806,#209);
#155=LINE('',#807,#210);
#156=LINE('',#810,#211);
#157=LINE('',#811,#212);
#158=LINE('',#814,#213);
#159=LINE('',#815,#214);
#160=LINE('',#817,#215);
#161=LINE('',#821,#216);
#162=LINE('',#822,#217);
#163=LINE('',#823,#218);
#164=LINE('',#826,#219);
#165=LINE('',#827,#220);
#166=LINE('',#830,#221);
#167=LINE('',#831,#222);
#168=LINE('',#833,#223);
#169=VECTOR('',#570,3.5);
#170=VECTOR('',#577,1.5);
#171=VECTOR('',#584,1.5);
#172=VECTOR('',#589,10.);
#173=VECTOR('',#592,10.);
#174=VECTOR('',#599,1.5);
#175=VECTOR('',#606,1.5);
#176=VECTOR('',#611,10.);
#177=VECTOR('',#612,10.);
#178=VECTOR('',#613,10.);
#179=VECTOR('',#614,10.);
#180=VECTOR('',#615,10.);
#181=VECTOR('',#616,10.);
#182=VECTOR('',#617,10.);
#183=VECTOR('',#618,10.);
#184=VECTOR('',#621,10.);
#185=VECTOR('',#622,10.);
#186=VECTOR('',#623,10.);
#187=VECTOR('',#626,10.);
#188=VECTOR('',#627,10.);
#189=VECTOR('',#630,10.);
#190=VECTOR('',#631,10.);
#191=VECTOR('',#632,10.);
#192=VECTOR('',#635,10.);
#193=VECTOR('',#636,10.);
#194=VECTOR('',#639,10.);
#195=VECTOR('',#640,10.);
#196=VECTOR('',#643,10.);
#197=VECTOR('',#646,10.);
#198=VECTOR('',#647,10.);
#199=VECTOR('',#648,10.);
#200=VECTOR('',#649,10.);
#201=VECTOR('',#652,10.);
#202=VECTOR('',#653,10.);
#203=VECTOR('',#654,10.);
#204=VECTOR('',#655,10.);
#205=VECTOR('',#656,10.);
#206=VECTOR('',#657,10.);
#207=VECTOR('',#660,10.);
#208=VECTOR('',#665,10.);
#209=VECTOR('',#666,10.);
#210=VECTOR('',#667,10.);
#211=VECTOR('',#670,10.);
#212=VECTOR('',#671,10.);
#213=VECTOR('',#674,10.);
#214=VECTOR('',#675,10.);
#215=VECTOR('',#678,10.);
#216=VECTOR('',#681,10.);
#217=VECTOR('',#682,10.);
#218=VECTOR('',#683,10.);
#219=VECTOR('',#686,10.);
#220=VECTOR('',#687,10.);
#221=VECTOR('',#690,10.);
#222=VECTOR('',#691,10.);
#223=VECTOR('',#694,10.);
#224=CIRCLE('',#527,3.5);
#225=CIRCLE('',#528,3.5);
#226=CIRCLE('',#530,1.5);
#227=CIRCLE('',#531,1.5);
#228=CIRCLE('',#533,1.5);
#229=CIRCLE('',#534,1.5);
#230=CIRCLE('',#536,1.5);
#231=CIRCLE('',#538,1.5);
#232=CIRCLE('',#539,1.5);
#233=CIRCLE('',#540,1.5);
#234=CIRCLE('',#542,1.5);
#235=CIRCLE('',#543,1.5);
#236=VERTEX_POINT('',#699);
#237=VERTEX_POINT('',#701);
#238=VERTEX_POINT('',#705);
#239=VERTEX_POINT('',#707);
#240=VERTEX_POINT('',#711);
#241=VERTEX_POINT('',#713);
#242=VERTEX_POINT('',#717);
#243=VERTEX_POINT('',#718);
#244=VERTEX_POINT('',#720);
#245=VERTEX_POINT('',#724);
#246=VERTEX_POINT('',#727);
#247=VERTEX_POINT('',#731);
#248=VERTEX_POINT('',#733);
#249=VERTEX_POINT('',#737);
#250=VERTEX_POINT('',#738);
#251=VERTEX_POINT('',#740);
#252=VERTEX_POINT('',#742);
#253=VERTEX_POINT('',#745);
#254=VERTEX_POINT('',#747);
#255=VERTEX_POINT('',#749);
#256=VERTEX_POINT('',#753);
#257=VERTEX_POINT('',#755);
#258=VERTEX_POINT('',#759);
#259=VERTEX_POINT('',#763);
#260=VERTEX_POINT('',#765);
#261=VERTEX_POINT('',#769);
#262=VERTEX_POINT('',#773);
#263=VERTEX_POINT('',#779);
#264=VERTEX_POINT('',#780);
#265=VERTEX_POINT('',#782);
#266=VERTEX_POINT('',#784);
#267=VERTEX_POINT('',#788);
#268=VERTEX_POINT('',#789);
#269=VERTEX_POINT('',#791);
#270=VERTEX_POINT('',#793);
#271=VERTEX_POINT('',#796);
#272=VERTEX_POINT('',#803);
#273=VERTEX_POINT('',#804);
#274=VERTEX_POINT('',#809);
#275=VERTEX_POINT('',#813);
#276=VERTEX_POINT('',#819);
#277=VERTEX_POINT('',#820);
#278=VERTEX_POINT('',#825);
#279=VERTEX_POINT('',#829);
#280=EDGE_CURVE('',#236,#236,#224,.T.);
#281=EDGE_CURVE('',#236,#237,#114,.T.);
#282=EDGE_CURVE('',#237,#237,#225,.T.);
#283=EDGE_CURVE('',#238,#238,#226,.T.);
#284=EDGE_CURVE('',#238,#239,#115,.T.);
#285=EDGE_CURVE('',#239,#239,#227,.T.);
#286=EDGE_CURVE('',#240,#240,#228,.T.);
#287=EDGE_CURVE('',#240,#241,#116,.T.);
#288=EDGE_CURVE('',#241,#241,#229,.T.);
#289=EDGE_CURVE('',#242,#243,#117,.T.);
#290=EDGE_CURVE('',#244,#242,#230,.T.);
#291=EDGE_CURVE('',#243,#244,#118,.T.);
#292=EDGE_CURVE('',#244,#245,#231,.T.);
#293=EDGE_CURVE('',#245,#242,#232,.T.);
#294=EDGE_CURVE('',#245,#246,#119,.T.);
#295=EDGE_CURVE('',#246,#246,#233,.T.);
#296=EDGE_CURVE('',#247,#247,#234,.T.);
#297=EDGE_CURVE('',#247,#248,#120,.T.);
#298=EDGE_CURVE('',#248,#248,#235,.T.);
#299=EDGE_CURVE('',#249,#250,#121,.T.);
#300=EDGE_CURVE('',#251,#249,#122,.T.);
#301=EDGE_CURVE('',#252,#251,#123,.T.);
#302=EDGE_CURVE('',#250,#252,#124,.T.);
#303=EDGE_CURVE('',#253,#242,#125,.T.);
#304=EDGE_CURVE('',#254,#253,#126,.T.);
#305=EDGE_CURVE('',#255,#254,#127,.T.);
#306=EDGE_CURVE('',#244,#255,#128,.T.);
#307=EDGE_CURVE('',#253,#256,#129,.T.);
#308=EDGE_CURVE('',#257,#256,#130,.T.);
#309=EDGE_CURVE('',#254,#257,#131,.T.);
#310=EDGE_CURVE('',#243,#258,#132,.F.);
#311=EDGE_CURVE('',#256,#258,#133,.T.);
#312=EDGE_CURVE('',#251,#259,#134,.F.);
#313=EDGE_CURVE('',#260,#259,#135,.T.);
#314=EDGE_CURVE('',#252,#260,#136,.F.);
#315=EDGE_CURVE('',#249,#261,#137,.F.);
#316=EDGE_CURVE('',#259,#261,#138,.T.);
#317=EDGE_CURVE('',#255,#262,#139,.T.);
#318=EDGE_CURVE('',#258,#262,#140,.T.);
#319=EDGE_CURVE('',#262,#257,#141,.T.);
#320=EDGE_CURVE('',#263,#264,#142,.T.);
#321=EDGE_CURVE('',#264,#265,#143,.T.);
#322=EDGE_CURVE('',#265,#266,#144,.T.);
#323=EDGE_CURVE('',#266,#263,#145,.T.);
#324=EDGE_CURVE('',#267,#268,#146,.T.);
#325=EDGE_CURVE('',#268,#269,#147,.T.);
#326=EDGE_CURVE('',#269,#270,#148,.T.);
#327=EDGE_CURVE('',#270,#267,#149,.T.);
#328=EDGE_CURVE('',#271,#260,#150,.T.);
#329=EDGE_CURVE('',#261,#271,#151,.T.);
#330=EDGE_CURVE('',#250,#271,#152,.T.);
#331=EDGE_CURVE('',#272,#273,#153,.T.);
#332=EDGE_CURVE('',#273,#263,#154,.T.);
#333=EDGE_CURVE('',#272,#266,#155,.T.);
#334=EDGE_CURVE('',#274,#272,#156,.T.);
#335=EDGE_CURVE('',#274,#265,#157,.T.);
#336=EDGE_CURVE('',#275,#274,#158,.T.);
#337=EDGE_CURVE('',#275,#264,#159,.T.);
#338=EDGE_CURVE('',#273,#275,#160,.T.);
#339=EDGE_CURVE('',#276,#277,#161,.T.);
#340=EDGE_CURVE('',#276,#267,#162,.T.);
#341=EDGE_CURVE('',#277,#270,#163,.T.);
#342=EDGE_CURVE('',#277,#278,#164,.T.);
#343=EDGE_CURVE('',#278,#269,#165,.T.);
#344=EDGE_CURVE('',#278,#279,#166,.T.);
#345=EDGE_CURVE('',#279,#268,#167,.T.);
#346=EDGE_CURVE('',#279,#276,#168,.T.);
#347=ORIENTED_EDGE('',*,*,#280,.F.);
#348=ORIENTED_EDGE('',*,*,#281,.T.);
#349=ORIENTED_EDGE('',*,*,#282,.F.);
#350=ORIENTED_EDGE('',*,*,#281,.F.);
#351=ORIENTED_EDGE('',*,*,#283,.F.);
#352=ORIENTED_EDGE('',*,*,#284,.T.);
#353=ORIENTED_EDGE('',*,*,#285,.F.);
#354=ORIENTED_EDGE('',*,*,#284,.F.);
#355=ORIENTED_EDGE('',*,*,#286,.F.);
#356=ORIENTED_EDGE('',*,*,#287,.T.);
#357=ORIENTED_EDGE('',*,*,#288,.F.);
#358=ORIENTED_EDGE('',*,*,#287,.F.);
#359=ORIENTED_EDGE('',*,*,#289,.F.);
#360=ORIENTED_EDGE('',*,*,#290,.F.);
#361=ORIENTED_EDGE('',*,*,#291,.F.);
#362=ORIENTED_EDGE('',*,*,#292,.F.);
#363=ORIENTED_EDGE('',*,*,#290,.T.);
#364=ORIENTED_EDGE('',*,*,#293,.F.);
#365=ORIENTED_EDGE('',*,*,#294,.T.);
#366=ORIENTED_EDGE('',*,*,#295,.F.);
#367=ORIENTED_EDGE('',*,*,#294,.F.);
#368=ORIENTED_EDGE('',*,*,#296,.F.);
#369=ORIENTED_EDGE('',*,*,#297,.T.);
#370=ORIENTED_EDGE('',*,*,#298,.F.);
#371=ORIENTED_EDGE('',*,*,#297,.F.);
#372=ORIENTED_EDGE('',*,*,#299,.F.);
#373=ORIENTED_EDGE('',*,*,#300,.F.);
#374=ORIENTED_EDGE('',*,*,#301,.F.);
#375=ORIENTED_EDGE('',*,*,#302,.F.);
#376=ORIENTED_EDGE('',*,*,#283,.T.);
#377=ORIENTED_EDGE('',*,*,#286,.T.);
#378=ORIENTED_EDGE('',*,*,#292,.T.);
#379=ORIENTED_EDGE('',*,*,#293,.T.);
#380=ORIENTED_EDGE('',*,*,#303,.F.);
#381=ORIENTED_EDGE('',*,*,#304,.F.);
#382=ORIENTED_EDGE('',*,*,#305,.F.);
#383=ORIENTED_EDGE('',*,*,#306,.F.);
#384=ORIENTED_EDGE('',*,*,#296,.T.);
#385=ORIENTED_EDGE('',*,*,#304,.T.);
#386=ORIENTED_EDGE('',*,*,#307,.T.);
#387=ORIENTED_EDGE('',*,*,#308,.F.);
#388=ORIENTED_EDGE('',*,*,#309,.F.);
#389=ORIENTED_EDGE('',*,*,#303,.T.);
#390=ORIENTED_EDGE('',*,*,#289,.T.);
#391=ORIENTED_EDGE('',*,*,#310,.T.);
#392=ORIENTED_EDGE('',*,*,#311,.F.);
#393=ORIENTED_EDGE('',*,*,#307,.F.);
#394=ORIENTED_EDGE('',*,*,#301,.T.);
#395=ORIENTED_EDGE('',*,*,#312,.T.);
#396=ORIENTED_EDGE('',*,*,#313,.F.);
#397=ORIENTED_EDGE('',*,*,#314,.F.);
#398=ORIENTED_EDGE('',*,*,#300,.T.);
#399=ORIENTED_EDGE('',*,*,#315,.T.);
#400=ORIENTED_EDGE('',*,*,#316,.F.);
#401=ORIENTED_EDGE('',*,*,#312,.F.);
#402=ORIENTED_EDGE('',*,*,#291,.T.);
#403=ORIENTED_EDGE('',*,*,#306,.T.);
#404=ORIENTED_EDGE('',*,*,#317,.T.);
#405=ORIENTED_EDGE('',*,*,#318,.F.);
#406=ORIENTED_EDGE('',*,*,#310,.F.);
#407=ORIENTED_EDGE('',*,*,#305,.T.);
#408=ORIENTED_EDGE('',*,*,#309,.T.);
#409=ORIENTED_EDGE('',*,*,#319,.F.);
#410=ORIENTED_EDGE('',*,*,#317,.F.);
#411=ORIENTED_EDGE('',*,*,#318,.T.);
#412=ORIENTED_EDGE('',*,*,#319,.T.);
#413=ORIENTED_EDGE('',*,*,#308,.T.);
#414=ORIENTED_EDGE('',*,*,#311,.T.);
#415=ORIENTED_EDGE('',*,*,#320,.T.);
#416=ORIENTED_EDGE('',*,*,#321,.T.);
#417=ORIENTED_EDGE('',*,*,#322,.T.);
#418=ORIENTED_EDGE('',*,*,#323,.T.);
#419=ORIENTED_EDGE('',*,*,#324,.T.);
#420=ORIENTED_EDGE('',*,*,#325,.T.);
#421=ORIENTED_EDGE('',*,*,#326,.T.);
#422=ORIENTED_EDGE('',*,*,#327,.T.);
#423=ORIENTED_EDGE('',*,*,#328,.T.);
#424=ORIENTED_EDGE('',*,*,#313,.T.);
#425=ORIENTED_EDGE('',*,*,#316,.T.);
#426=ORIENTED_EDGE('',*,*,#329,.T.);
#427=ORIENTED_EDGE('',*,*,#299,.T.);
#428=ORIENTED_EDGE('',*,*,#330,.T.);
#429=ORIENTED_EDGE('',*,*,#329,.F.);
#430=ORIENTED_EDGE('',*,*,#315,.F.);
#431=ORIENTED_EDGE('',*,*,#302,.T.);
#432=ORIENTED_EDGE('',*,*,#314,.T.);
#433=ORIENTED_EDGE('',*,*,#328,.F.);
#434=ORIENTED_EDGE('',*,*,#330,.F.);
#435=ORIENTED_EDGE('',*,*,#331,.T.);
#436=ORIENTED_EDGE('',*,*,#332,.T.);
#437=ORIENTED_EDGE('',*,*,#323,.F.);
#438=ORIENTED_EDGE('',*,*,#333,.F.);
#439=ORIENTED_EDGE('',*,*,#334,.T.);
#440=ORIENTED_EDGE('',*,*,#333,.T.);
#441=ORIENTED_EDGE('',*,*,#322,.F.);
#442=ORIENTED_EDGE('',*,*,#335,.F.);
#443=ORIENTED_EDGE('',*,*,#282,.T.);
#444=ORIENTED_EDGE('',*,*,#336,.T.);
#445=ORIENTED_EDGE('',*,*,#335,.T.);
#446=ORIENTED_EDGE('',*,*,#321,.F.);
#447=ORIENTED_EDGE('',*,*,#337,.F.);
#448=ORIENTED_EDGE('',*,*,#338,.T.);
#449=ORIENTED_EDGE('',*,*,#337,.T.);
#450=ORIENTED_EDGE('',*,*,#320,.F.);
#451=ORIENTED_EDGE('',*,*,#332,.F.);
#452=ORIENTED_EDGE('',*,*,#339,.F.);
#453=ORIENTED_EDGE('',*,*,#340,.T.);
#454=ORIENTED_EDGE('',*,*,#327,.F.);
#455=ORIENTED_EDGE('',*,*,#341,.F.);
#456=ORIENTED_EDGE('',*,*,#342,.F.);
#457=ORIENTED_EDGE('',*,*,#341,.T.);
#458=ORIENTED_EDGE('',*,*,#326,.F.);
#459=ORIENTED_EDGE('',*,*,#343,.F.);
#460=ORIENTED_EDGE('',*,*,#280,.T.);
#461=ORIENTED_EDGE('',*,*,#344,.F.);
#462=ORIENTED_EDGE('',*,*,#343,.T.);
#463=ORIENTED_EDGE('',*,*,#325,.F.);
#464=ORIENTED_EDGE('',*,*,#345,.F.);
#465=ORIENTED_EDGE('',*,*,#346,.F.);
#466=ORIENTED_EDGE('',*,*,#345,.T.);
#467=ORIENTED_EDGE('',*,*,#324,.F.);
#468=ORIENTED_EDGE('',*,*,#340,.F.);
#469=ORIENTED_EDGE('',*,*,#346,.T.);
#470=ORIENTED_EDGE('',*,*,#339,.T.);
#471=ORIENTED_EDGE('',*,*,#342,.T.);
#472=ORIENTED_EDGE('',*,*,#344,.T.);
#473=ORIENTED_EDGE('',*,*,#285,.T.);
#474=ORIENTED_EDGE('',*,*,#288,.T.);
#475=ORIENTED_EDGE('',*,*,#295,.T.);
#476=ORIENTED_EDGE('',*,*,#298,.T.);
#477=ORIENTED_EDGE('',*,*,#338,.F.);
#478=ORIENTED_EDGE('',*,*,#331,.F.);
#479=ORIENTED_EDGE('',*,*,#334,.F.);
#480=ORIENTED_EDGE('',*,*,#336,.F.);
#481=CYLINDRICAL_SURFACE('',#526,3.5);
#482=CYLINDRICAL_SURFACE('',#529,1.5);
#483=CYLINDRICAL_SURFACE('',#532,1.5);
#484=CYLINDRICAL_SURFACE('',#537,1.5);
#485=CYLINDRICAL_SURFACE('',#541,1.5);
#486=ADVANCED_FACE('',(#49),#481,.F.);
#487=ADVANCED_FACE('',(#50),#482,.F.);
#488=ADVANCED_FACE('',(#51),#483,.F.);
#489=ADVANCED_FACE('',(#52),#28,.F.);
#490=ADVANCED_FACE('',(#53),#484,.F.);
#491=ADVANCED_FACE('',(#54),#485,.F.);
#492=ADVANCED_FACE('',(#55,#15,#16,#17,#18),#29,.T.);
#493=ADVANCED_FACE('',(#56),#30,.F.);
#494=ADVANCED_FACE('',(#57),#31,.F.);
#495=ADVANCED_FACE('',(#58),#32,.F.);
#496=ADVANCED_FACE('',(#59),#33,.F.);
#497=ADVANCED_FACE('',(#60),#34,.F.);
#498=ADVANCED_FACE('',(#61),#35,.F.);
#499=ADVANCED_FACE('',(#62,#19),#36,.T.);
#500=ADVANCED_FACE('',(#63,#20),#37,.T.);
#501=ADVANCED_FACE('',(#64),#38,.F.);
#502=ADVANCED_FACE('',(#65),#39,.F.);
#503=ADVANCED_FACE('',(#66),#40,.T.);
#504=ADVANCED_FACE('',(#67,#21),#41,.T.);
#505=ADVANCED_FACE('',(#68),#42,.T.);
#506=ADVANCED_FACE('',(#69),#43,.T.);
#507=ADVANCED_FACE('',(#70),#44,.T.);
#508=ADVANCED_FACE('',(#71,#22),#45,.T.);
#509=ADVANCED_FACE('',(#72),#46,.T.);
#510=ADVANCED_FACE('',(#73),#47,.T.);
#511=ADVANCED_FACE('',(#74,#23,#24,#25,#26,#27),#48,.F.);
#512=CLOSED_SHELL('',(#486,#487,#488,#489,#490,#491,#492,#493,#494,#495,
#496,#497,#498,#499,#500,#501,#502,#503,#504,#505,#506,#507,#508,#509,#510,
#511));
#513=DERIVED_UNIT_ELEMENT(#515,1.);
#514=DERIVED_UNIT_ELEMENT(#840,-3.);
#515=(
MASS_UNIT()
NAMED_UNIT(*)
SI_UNIT(.KILO.,.GRAM.)
);
#516=DERIVED_UNIT((#513,#514));
#517=MEASURE_REPRESENTATION_ITEM('density measure',
POSITIVE_RATIO_MEASURE(7850.),#516);
#518=PROPERTY_DEFINITION_REPRESENTATION(#523,#520);
#519=PROPERTY_DEFINITION_REPRESENTATION(#524,#521);
#520=REPRESENTATION('material name',(#522),#837);
#521=REPRESENTATION('density',(#517),#837);
#522=DESCRIPTIVE_REPRESENTATION_ITEM('Steel','Steel');
#523=PROPERTY_DEFINITION('material property','material name',#847);
#524=PROPERTY_DEFINITION('material property','density of part',#847);
#525=AXIS2_PLACEMENT_3D('',#697,#564,#565);
#526=AXIS2_PLACEMENT_3D('',#698,#566,#567);
#527=AXIS2_PLACEMENT_3D('',#700,#568,#569);
#528=AXIS2_PLACEMENT_3D('',#703,#571,#572);
#529=AXIS2_PLACEMENT_3D('',#704,#573,#574);
#530=AXIS2_PLACEMENT_3D('',#706,#575,#576);
#531=AXIS2_PLACEMENT_3D('',#709,#578,#579);
#532=AXIS2_PLACEMENT_3D('',#710,#580,#581);
#533=AXIS2_PLACEMENT_3D('',#712,#582,#583);
#534=AXIS2_PLACEMENT_3D('',#715,#585,#586);
#535=AXIS2_PLACEMENT_3D('',#716,#587,#588);
#536=AXIS2_PLACEMENT_3D('',#721,#590,#591);
#537=AXIS2_PLACEMENT_3D('',#723,#593,#594);
#538=AXIS2_PLACEMENT_3D('',#725,#595,#596);
#539=AXIS2_PLACEMENT_3D('',#726,#597,#598);
#540=AXIS2_PLACEMENT_3D('',#729,#600,#601);
#541=AXIS2_PLACEMENT_3D('',#730,#602,#603);
#542=AXIS2_PLACEMENT_3D('',#732,#604,#605);
#543=AXIS2_PLACEMENT_3D('',#735,#607,#608);
#544=AXIS2_PLACEMENT_3D('',#736,#609,#610);
#545=AXIS2_PLACEMENT_3D('',#752,#619,#620);
#546=AXIS2_PLACEMENT_3D('',#758,#624,#625);
#547=AXIS2_PLACEMENT_3D('',#762,#628,#629);
#548=AXIS2_PLACEMENT_3D('',#768,#633,#634);
#549=AXIS2_PLACEMENT_3D('',#772,#637,#638);
#550=AXIS2_PLACEMENT_3D('',#776,#641,#642);
#551=AXIS2_PLACEMENT_3D('',#778,#644,#645);
#552=AXIS2_PLACEMENT_3D('',#787,#650,#651);
#553=AXIS2_PLACEMENT_3D('',#799,#658,#659);
#554=AXIS2_PLACEMENT_3D('',#801,#661,#662);
#555=AXIS2_PLACEMENT_3D('',#802,#663,#664);
#556=AXIS2_PLACEMENT_3D('',#808,#668,#669);
#557=AXIS2_PLACEMENT_3D('',#812,#672,#673);
#558=AXIS2_PLACEMENT_3D('',#816,#676,#677);
#559=AXIS2_PLACEMENT_3D('',#818,#679,#680);
#560=AXIS2_PLACEMENT_3D('',#824,#684,#685);
#561=AXIS2_PLACEMENT_3D('',#828,#688,#689);
#562=AXIS2_PLACEMENT_3D('',#832,#692,#693);
#563=AXIS2_PLACEMENT_3D('',#834,#695,#696);
#564=DIRECTION('axis',(0.,0.,1.));
#565=DIRECTION('refdir',(1.,0.,0.));
#566=DIRECTION('center_axis',(0.,-1.,0.));
#567=DIRECTION('ref_axis',(0.,0.,1.));
#568=DIRECTION('center_axis',(0.,-1.,0.));
#569=DIRECTION('ref_axis',(0.,0.,1.));
#570=DIRECTION('',(0.,-1.,0.));
#571=DIRECTION('center_axis',(0.,1.,0.));
#572=DIRECTION('ref_axis',(0.,0.,1.));
#573=DIRECTION('center_axis',(0.,0.,-1.));
#574=DIRECTION('ref_axis',(1.,0.,0.));
#575=DIRECTION('center_axis',(0.,0.,-1.));
#576=DIRECTION('ref_axis',(1.,0.,0.));
#577=DIRECTION('',(0.,0.,-1.));
#578=DIRECTION('center_axis',(0.,0.,1.));
#579=DIRECTION('ref_axis',(1.,0.,0.));
#580=DIRECTION('center_axis',(0.,0.,-1.));
#581=DIRECTION('ref_axis',(1.,0.,0.));
#582=DIRECTION('center_axis',(0.,0.,-1.));
#583=DIRECTION('ref_axis',(1.,0.,0.));
#584=DIRECTION('',(0.,0.,-1.));
#585=DIRECTION('center_axis',(0.,0.,1.));
#586=DIRECTION('ref_axis',(1.,0.,0.));
#587=DIRECTION('center_axis',(0.,0.,1.));
#588=DIRECTION('ref_axis',(-1.,0.,0.));
#589=DIRECTION('',(1.,0.,0.));
#590=DIRECTION('center_axis',(0.,0.,1.));
#591=DIRECTION('ref_axis',(1.,0.,0.));
#592=DIRECTION('',(0.,1.,0.));
#593=DIRECTION('center_axis',(0.,0.,-1.));
#594=DIRECTION('ref_axis',(1.,0.,0.));
#595=DIRECTION('center_axis',(0.,0.,-1.));
#596=DIRECTION('ref_axis',(1.,0.,0.));
#597=DIRECTION('center_axis',(0.,0.,-1.));
#598=DIRECTION('ref_axis',(1.,0.,0.));
#599=DIRECTION('',(0.,0.,-1.));
#600=DIRECTION('center_axis',(0.,0.,1.));
#601=DIRECTION('ref_axis',(1.,0.,0.));
#602=DIRECTION('center_axis',(0.,0.,-1.));
#603=DIRECTION('ref_axis',(1.,0.,0.));
#604=DIRECTION('center_axis',(0.,0.,-1.));
#605=DIRECTION('ref_axis',(1.,0.,0.));
#606=DIRECTION('',(0.,0.,-1.));
#607=DIRECTION('center_axis',(0.,0.,1.));
#608=DIRECTION('ref_axis',(1.,0.,0.));
#609=DIRECTION('center_axis',(0.,0.,1.));
#610=DIRECTION('ref_axis',(1.,0.,0.));
#611=DIRECTION('',(-1.,0.,0.));
#612=DIRECTION('',(0.,-1.,0.));
#613=DIRECTION('',(1.,0.,0.));
#614=DIRECTION('',(0.,1.,0.));
#615=DIRECTION('',(1.,0.,0.));
#616=DIRECTION('',(0.,-1.,0.));
#617=DIRECTION('',(-1.,0.,0.));
#618=DIRECTION('',(0.,1.,0.));
#619=DIRECTION('center_axis',(1.,0.,0.));
#620=DIRECTION('ref_axis',(0.,1.,0.));
#621=DIRECTION('',(0.,0.,1.));
#622=DIRECTION('',(0.,-1.,0.));
#623=DIRECTION('',(0.,0.,1.));
#624=DIRECTION('center_axis',(0.,1.,0.));
#625=DIRECTION('ref_axis',(-1.,0.,0.));
#626=DIRECTION('',(0.,0.,-1.));
#627=DIRECTION('',(1.,0.,0.));
#628=DIRECTION('center_axis',(0.,1.,0.));
#629=DIRECTION('ref_axis',(-1.,0.,0.));
#630=DIRECTION('',(0.,0.,-1.));
#631=DIRECTION('',(1.,0.,0.));
#632=DIRECTION('',(0.,0.,-1.));
#633=DIRECTION('center_axis',(1.,0.,0.));
#634=DIRECTION('ref_axis',(0.,1.,0.));
#635=DIRECTION('',(0.,0.,-1.));
#636=DIRECTION('',(0.,-1.,0.));
#637=DIRECTION('center_axis',(-1.,0.,0.));
#638=DIRECTION('ref_axis',(0.,-1.,0.));
#639=DIRECTION('',(0.,0.,1.));
#640=DIRECTION('',(0.,1.,0.));
#641=DIRECTION('center_axis',(0.,-1.,0.));
#642=DIRECTION('ref_axis',(1.,0.,0.));
#643=DIRECTION('',(-1.,0.,0.));
#644=DIRECTION('center_axis',(0.,0.,1.));
#645=DIRECTION('ref_axis',(1.,0.,0.));
#646=DIRECTION('',(-1.,0.,0.));
#647=DIRECTION('',(0.,1.,0.));
#648=DIRECTION('',(1.,0.,0.));
#649=DIRECTION('',(0.,-1.,0.));
#650=DIRECTION('center_axis',(0.,0.,1.));
#651=DIRECTION('ref_axis',(1.,0.,0.));
#652=DIRECTION('',(1.,0.,0.));
#653=DIRECTION('',(0.,1.,0.));
#654=DIRECTION('',(-1.,0.,0.));
#655=DIRECTION('',(0.,-1.,0.));
#656=DIRECTION('',(0.,1.,0.));
#657=DIRECTION('',(-1.,0.,0.));
#658=DIRECTION('center_axis',(0.,-1.,0.));
#659=DIRECTION('ref_axis',(1.,0.,0.));
#660=DIRECTION('',(0.,0.,1.));
#661=DIRECTION('center_axis',(-1.,0.,0.));
#662=DIRECTION('ref_axis',(0.,-1.,0.));
#663=DIRECTION('center_axis',(-1.,0.,0.));
#664=DIRECTION('ref_axis',(0.,-1.,0.));
#665=DIRECTION('',(0.,-1.,0.));
#666=DIRECTION('',(0.,0.,1.));
#667=DIRECTION('',(0.,0.,1.));
#668=DIRECTION('center_axis',(0.,-1.,0.));
#669=DIRECTION('ref_axis',(1.,0.,0.));
#670=DIRECTION('',(1.,0.,0.));
#671=DIRECTION('',(0.,0.,1.));
#672=DIRECTION('center_axis',(1.,0.,0.));
#673=DIRECTION('ref_axis',(0.,1.,0.));
#674=DIRECTION('',(0.,1.,0.));
#675=DIRECTION('',(0.,0.,1.));
#676=DIRECTION('center_axis',(0.,1.,0.));
#677=DIRECTION('ref_axis',(-1.,0.,0.));
#678=DIRECTION('',(-1.,0.,0.));
#679=DIRECTION('center_axis',(-1.,0.,0.));
#680=DIRECTION('ref_axis',(0.,-1.,0.));
#681=DIRECTION('',(0.,1.,0.));
#682=DIRECTION('',(0.,0.,1.));
#683=DIRECTION('',(0.,0.,1.));
#684=DIRECTION('center_axis',(0.,1.,0.));
#685=DIRECTION('ref_axis',(-1.,0.,0.));
#686=DIRECTION('',(1.,0.,0.));
#687=DIRECTION('',(0.,0.,1.));
#688=DIRECTION('center_axis',(1.,0.,0.));
#689=DIRECTION('ref_axis',(0.,1.,0.));
#690=DIRECTION('',(0.,-1.,0.));
#691=DIRECTION('',(0.,0.,1.));
#692=DIRECTION('center_axis',(0.,-1.,0.));
#693=DIRECTION('ref_axis',(1.,0.,0.));
#694=DIRECTION('',(-1.,0.,0.));
#695=DIRECTION('center_axis',(0.,0.,1.));
#696=DIRECTION('ref_axis',(1.,0.,0.));
#697=CARTESIAN_POINT('',(0.,0.,0.));
#698=CARTESIAN_POINT('Origin',(134.35434594317,-70.0342590029411,20.854487615168));
#699=CARTESIAN_POINT('',(134.35434594317,-57.5342590029411,17.354487615168));
#700=CARTESIAN_POINT('Origin',(134.35434594317,-57.5342590029411,20.854487615168));
#701=CARTESIAN_POINT('',(134.35434594317,-65.,17.354487615168));
#702=CARTESIAN_POINT('',(134.35434594317,-70.0342590029411,17.354487615168));
#703=CARTESIAN_POINT('Origin',(134.35434594317,-65.,20.854487615168));
#704=CARTESIAN_POINT('Origin',(99.9333658895737,-61.8419721062374,24.0046185530081));
#705=CARTESIAN_POINT('',(98.4333658895737,-61.8419721062374,39.0046185530081));
#706=CARTESIAN_POINT('Origin',(99.9333658895737,-61.8419721062374,39.0046185530081));
#707=CARTESIAN_POINT('',(98.4333658895737,-61.8419721062374,16.0046185530081));
#708=CARTESIAN_POINT('',(98.4333658895737,-61.8419721062374,24.0046185530081));
#709=CARTESIAN_POINT('Origin',(99.9333658895737,-61.8419721062374,16.0046185530081));
#710=CARTESIAN_POINT('Origin',(167.964994558042,-61.2963070460217,24.0046185530081));
#711=CARTESIAN_POINT('',(166.464994558042,-61.2963070460217,39.0046185530081));
#712=CARTESIAN_POINT('Origin',(167.964994558042,-61.2963070460217,39.0046185530081));
#713=CARTESIAN_POINT('',(166.464994558042,-61.2963070460217,16.0046185530081));
#714=CARTESIAN_POINT('',(166.464994558042,-61.2963070460217,24.0046185530081));
#715=CARTESIAN_POINT('Origin',(167.964994558042,-61.2963070460217,16.0046185530081));
#716=CARTESIAN_POINT('Origin',(168.529153980313,-154.568314035369,39.0046185530081));
#717=CARTESIAN_POINT('',(167.442539886023,-153.534259002941,39.0046185530081));
#718=CARTESIAN_POINT('',(167.495098947885,-153.534259002941,39.0046185530081));
#719=CARTESIAN_POINT('',(150.245098947885,-153.534259002941,39.0046185530081));
#720=CARTESIAN_POINT('',(167.495098947885,-153.481699941079,39.0046185530081));
#721=CARTESIAN_POINT('Origin',(168.529153980313,-154.568314035369,39.0046185530081));
#722=CARTESIAN_POINT('',(167.495098947885,-86.2671295014705,39.0046185530081));
#723=CARTESIAN_POINT('Origin',(168.529153980313,-154.568314035369,24.0046185530081));
#724=CARTESIAN_POINT('',(167.029153980313,-154.568314035369,39.0046185530081));
#725=CARTESIAN_POINT('Origin',(168.529153980313,-154.568314035369,39.0046185530081));
#726=CARTESIAN_POINT('Origin',(168.529153980313,-154.568314035369,39.0046185530081));
#727=CARTESIAN_POINT('',(167.029153980313,-154.568314035369,16.0046185530081));
#728=CARTESIAN_POINT('',(167.029153980313,-154.568314035369,24.0046185530081));
#729=CARTESIAN_POINT('Origin',(168.529153980313,-154.568314035369,16.0046185530081));
#730=CARTESIAN_POINT('Origin',(99.7535302317602,-154.433437292009,24.0046185530081));
#731=CARTESIAN_POINT('',(98.2535302317602,-154.433437292009,39.0046185530081));
#732=CARTESIAN_POINT('Origin',(99.7535302317602,-154.433437292009,39.0046185530081));
#733=CARTESIAN_POINT('',(98.2535302317602,-154.433437292009,16.0046185530081));
#734=CARTESIAN_POINT('',(98.2535302317602,-154.433437292009,24.0046185530081));
#735=CARTESIAN_POINT('Origin',(99.7535302317602,-154.433437292009,16.0046185530081));
#736=CARTESIAN_POINT('Origin',(133.995098947885,-107.534259002941,39.0046185530081));
#737=CARTESIAN_POINT('',(170.495098947885,-156.534259002941,39.0046185530081));
#738=CARTESIAN_POINT('',(97.495098947885,-156.534259002941,39.0046185530081));
#739=CARTESIAN_POINT('',(115.245098947885,-156.534259002941,39.0046185530081));
#740=CARTESIAN_POINT('',(170.495098947885,-58.5342590029411,39.0046185530081));
#741=CARTESIAN_POINT('',(170.495098947885,-132.534259002941,39.0046185530081));
#742=CARTESIAN_POINT('',(97.495098947885,-58.5342590029411,39.0046185530081));
#743=CARTESIAN_POINT('',(152.745098947885,-58.5342590029411,39.0046185530081));
#744=CARTESIAN_POINT('',(97.495098947885,-82.5342590029411,39.0046185530081));
#745=CARTESIAN_POINT('',(101.551886809896,-153.534259002941,39.0046185530081));
#746=CARTESIAN_POINT('',(150.245098947885,-153.534259002941,39.0046185530081));
#747=CARTESIAN_POINT('',(101.551886809896,-64.,39.0046185530081));
#748=CARTESIAN_POINT('',(101.551886809896,-130.034259002941,39.0046185530081));
#749=CARTESIAN_POINT('',(167.495098947885,-64.,39.0046185530081));
#750=CARTESIAN_POINT('',(118.27349287889,-64.,39.0046185530081));
#751=CARTESIAN_POINT('',(167.495098947885,-86.2671295014705,39.0046185530081));
#752=CARTESIAN_POINT('Origin',(101.551886809896,-152.534259002941,36.0046185530081));
#753=CARTESIAN_POINT('',(101.551886809896,-153.534259002941,40.0046185530081));
#754=CARTESIAN_POINT('',(101.551886809896,-153.534259002941,36.0046185530081));
#755=CARTESIAN_POINT('',(101.551886809896,-64.,40.0046185530081));
#756=CARTESIAN_POINT('',(101.551886809896,-130.034259002941,40.0046185530081));
#757=CARTESIAN_POINT('',(101.551886809896,-64.,36.0046185530081));
#758=CARTESIAN_POINT('Origin',(166.495098947885,-153.534259002941,36.0046185530081));
#759=CARTESIAN_POINT('',(167.495098947885,-153.534259002941,40.0046185530081));
#760=CARTESIAN_POINT('',(167.495098947885,-153.534259002941,36.0046185530081));
#761=CARTESIAN_POINT('',(150.245098947885,-153.534259002941,40.0046185530081));
#762=CARTESIAN_POINT('Origin',(171.495098947885,-58.5342590029411,36.0046185530081));
#763=CARTESIAN_POINT('',(170.495098947885,-58.5342590029411,40.0046185530081));
#764=CARTESIAN_POINT('',(170.495098947885,-58.5342590029411,36.0046185530081));
#765=CARTESIAN_POINT('',(97.495098947885,-58.5342590029411,40.0046185530081));
#766=CARTESIAN_POINT('',(152.745098947885,-58.5342590029411,40.0046185530081));
#767=CARTESIAN_POINT('',(97.495098947885,-58.5342590029411,36.0046185530081));
#768=CARTESIAN_POINT('Origin',(170.495098947885,-157.534259002941,36.0046185530081));
#769=CARTESIAN_POINT('',(170.495098947885,-156.534259002941,40.0046185530081));
#770=CARTESIAN_POINT('',(170.495098947885,-156.534259002941,36.0046185530081));
#771=CARTESIAN_POINT('',(170.495098947885,-132.534259002941,40.0046185530081));
#772=CARTESIAN_POINT('Origin',(167.495098947885,-65.,36.0046185530081));
#773=CARTESIAN_POINT('',(167.495098947885,-64.,40.0046185530081));
#774=CARTESIAN_POINT('',(167.495098947885,-64.,36.0046185530081));
#775=CARTESIAN_POINT('',(167.495098947885,-86.2671295014705,40.0046185530081));
#776=CARTESIAN_POINT('Origin',(102.551886809896,-64.,36.0046185530081));
#777=CARTESIAN_POINT('',(118.27349287889,-64.,40.0046185530081));
#778=CARTESIAN_POINT('Origin',(133.995098947885,-107.534259002941,40.0046185530081));
#779=CARTESIAN_POINT('',(166.495098947885,-152.534259002941,40.0046185530081));
#780=CARTESIAN_POINT('',(102.551886809896,-152.534259002941,40.0046185530081));
#781=CARTESIAN_POINT('',(166.495098947885,-152.534259002941,40.0046185530081));
#782=CARTESIAN_POINT('',(102.551886809896,-65.,40.0046185530081));
#783=CARTESIAN_POINT('',(102.551886809896,-152.534259002941,40.0046185530081));
#784=CARTESIAN_POINT('',(166.495098947885,-65.,40.0046185530081));
#785=CARTESIAN_POINT('',(102.551886809896,-65.,40.0046185530081));
#786=CARTESIAN_POINT('',(166.495098947885,-65.,40.0046185530081));
#787=CARTESIAN_POINT('Origin',(133.995098947885,-107.534259002941,40.0046185530081));
#788=CARTESIAN_POINT('',(96.495098947885,-157.534259002941,40.0046185530081));
#789=CARTESIAN_POINT('',(171.495098947885,-157.534259002941,40.0046185530081));
#790=CARTESIAN_POINT('',(171.495098947885,-157.534259002941,40.0046185530081));
#791=CARTESIAN_POINT('',(171.495098947885,-57.5342590029411,40.0046185530081));
#792=CARTESIAN_POINT('',(171.495098947885,-57.5342590029411,40.0046185530081));
#793=CARTESIAN_POINT('',(96.495098947885,-57.5342590029411,40.0046185530081));
#794=CARTESIAN_POINT('',(96.495098947885,-57.5342590029411,40.0046185530081));
#795=CARTESIAN_POINT('',(96.495098947885,-157.534259002941,40.0046185530081));
#796=CARTESIAN_POINT('',(97.495098947885,-156.534259002941,40.0046185530081));
#797=CARTESIAN_POINT('',(97.495098947885,-82.5342590029411,40.0046185530081));
#798=CARTESIAN_POINT('',(115.245098947885,-156.534259002941,40.0046185530081));
#799=CARTESIAN_POINT('Origin',(96.495098947885,-156.534259002941,36.0046185530081));
#800=CARTESIAN_POINT('',(97.495098947885,-156.534259002941,36.0046185530081));
#801=CARTESIAN_POINT('Origin',(97.495098947885,-57.5342590029411,36.0046185530081));
#802=CARTESIAN_POINT('Origin',(166.495098947885,-65.,16.0046185530081));
#803=CARTESIAN_POINT('',(166.495098947885,-65.,16.0046185530081));
#804=CARTESIAN_POINT('',(166.495098947885,-152.534259002941,16.0046185530081));
#805=CARTESIAN_POINT('',(166.495098947885,-65.,16.0046185530081));
#806=CARTESIAN_POINT('',(166.495098947885,-152.534259002941,16.0046185530081));
#807=CARTESIAN_POINT('',(166.495098947885,-65.,16.0046185530081));
#808=CARTESIAN_POINT('Origin',(102.551886809896,-65.,16.0046185530081));
#809=CARTESIAN_POINT('',(102.551886809896,-65.,16.0046185530081));
#810=CARTESIAN_POINT('',(102.551886809896,-65.,16.0046185530081));
#811=CARTESIAN_POINT('',(102.551886809896,-65.,16.0046185530081));
#812=CARTESIAN_POINT('Origin',(102.551886809896,-152.534259002941,16.0046185530081));
#813=CARTESIAN_POINT('',(102.551886809896,-152.534259002941,16.0046185530081));
#814=CARTESIAN_POINT('',(102.551886809896,-152.534259002941,16.0046185530081));
#815=CARTESIAN_POINT('',(102.551886809896,-152.534259002941,16.0046185530081));
#816=CARTESIAN_POINT('Origin',(166.495098947885,-152.534259002941,16.0046185530081));
#817=CARTESIAN_POINT('',(166.495098947885,-152.534259002941,16.0046185530081));
#818=CARTESIAN_POINT('Origin',(96.495098947885,-57.5342590029411,16.0046185530081));
#819=CARTESIAN_POINT('',(96.495098947885,-157.534259002941,16.0046185530081));
#820=CARTESIAN_POINT('',(96.495098947885,-57.5342590029411,16.0046185530081));
#821=CARTESIAN_POINT('',(96.495098947885,-157.534259002941,16.0046185530081));
#822=CARTESIAN_POINT('',(96.495098947885,-157.534259002941,16.0046185530081));
#823=CARTESIAN_POINT('',(96.495098947885,-57.5342590029411,16.0046185530081));
#824=CARTESIAN_POINT('Origin',(171.495098947885,-57.5342590029411,16.0046185530081));
#825=CARTESIAN_POINT('',(171.495098947885,-57.5342590029411,16.0046185530081));
#826=CARTESIAN_POINT('',(96.495098947885,-57.5342590029411,16.0046185530081));
#827=CARTESIAN_POINT('',(171.495098947885,-57.5342590029411,16.0046185530081));
#828=CARTESIAN_POINT('Origin',(171.495098947885,-157.534259002941,16.0046185530081));
#829=CARTESIAN_POINT('',(171.495098947885,-157.534259002941,16.0046185530081));
#830=CARTESIAN_POINT('',(171.495098947885,-57.5342590029411,16.0046185530081));
#831=CARTESIAN_POINT('',(171.495098947885,-157.534259002941,16.0046185530081));
#832=CARTESIAN_POINT('Origin',(96.495098947885,-157.534259002941,16.0046185530081));
#833=CARTESIAN_POINT('',(171.495098947885,-157.534259002941,16.0046185530081));
#834=CARTESIAN_POINT('Origin',(133.995098947885,-107.534259002941,16.0046185530081));
#835=UNCERTAINTY_MEASURE_WITH_UNIT(LENGTH_MEASURE(0.01),#839,
'DISTANCE_ACCURACY_VALUE',
'Maximum model space distance between geometric entities at asserted c
onnectivities');
#836=UNCERTAINTY_MEASURE_WITH_UNIT(LENGTH_MEASURE(0.01),#839,
'DISTANCE_ACCURACY_VALUE',
'Maximum model space distance between geometric entities at asserted c
onnectivities');
#837=(
GEOMETRIC_REPRESENTATION_CONTEXT(3)
GLOBAL_UNCERTAINTY_ASSIGNED_CONTEXT((#835))
GLOBAL_UNIT_ASSIGNED_CONTEXT((#839,#841,#842))
REPRESENTATION_CONTEXT('','3D')
);
#838=(
GEOMETRIC_REPRESENTATION_CONTEXT(3)
GLOBAL_UNCERTAINTY_ASSIGNED_CONTEXT((#836))
GLOBAL_UNIT_ASSIGNED_CONTEXT((#839,#841,#842))
REPRESENTATION_CONTEXT('','3D')
);
#839=(
LENGTH_UNIT()
NAMED_UNIT(*)
SI_UNIT(.MILLI.,.METRE.)
);
#840=(
LENGTH_UNIT()
NAMED_UNIT(*)
SI_UNIT($,.METRE.)
);
#841=(
NAMED_UNIT(*)
PLANE_ANGLE_UNIT()
SI_UNIT($,.RADIAN.)
);
#842=(
NAMED_UNIT(*)
SI_UNIT($,.STERADIAN.)
SOLID_ANGLE_UNIT()
);
#843=SHAPE_DEFINITION_REPRESENTATION(#844,#845);
#844=PRODUCT_DEFINITION_SHAPE('',$,#847);
#845=SHAPE_REPRESENTATION('',(#525),#837);
#846=PRODUCT_DEFINITION_CONTEXT('part definition',#851,'design');
#847=PRODUCT_DEFINITION('2026-08-22-00-35-13-789','middle_macropad',#848,
#846);
#848=PRODUCT_DEFINITION_FORMATION('',$,#853);
#849=PRODUCT_RELATED_PRODUCT_CATEGORY('middle_macropad',
'middle_macropad',(#853));
#850=APPLICATION_PROTOCOL_DEFINITION('international standard',
'automotive_design',2009,#851);
#851=APPLICATION_CONTEXT(
'Core Data for Automotive Mechanical Design Process');
#852=PRODUCT_CONTEXT('part definition',#851,'mechanical');
#853=PRODUCT('2026-08-22-00-35-13-789','middle_macropad',$,(#852));
#854=PRESENTATION_STYLE_ASSIGNMENT((#855));
#855=SURFACE_STYLE_USAGE(.BOTH.,#856);
#856=SURFACE_SIDE_STYLE('',(#857));
#857=SURFACE_STYLE_FILL_AREA(#858);
#858=FILL_AREA_STYLE('Steel - Satin',(#859));
#859=FILL_AREA_STYLE_COLOUR('Steel - Satin',#860);
#860=COLOUR_RGB('Steel - Satin',0.627450980392157,0.627450980392157,0.627450980392157);
ENDSEC;
END-ISO-10303-21;
